<svg xmlns="http://www.w3.org/2000/svg" xmlns:xlink="http://www.w3.org/1999/xlink" contentStyleType="text/css" data-diagram-type="DESCRIPTION" height="616px" preserveAspectRatio="none" style="width:1909px;height:616px;background:#FFFFFF;" version="1.1" viewBox="0 0 1909 616" width="1909px" zoomAndPan="magnify"><title>AI-Enabled Loan Underwriting - High-Level System Architecture</title><defs/><g><g class="title" data-source-line="1"><text fill="#000000" font-family="sans-serif" font-size="14" font-weight="bold" lengthAdjust="spacing" textLength="502.8652" x="696.0674" y="22.9951">AI-Enabled Loan Underwriting - High-Level System Architecture</text></g><!--cluster Mobile App (Android/iOS)--><g class="cluster" data-entity="Mobile App (Android/iOS)" data-source-line="3" data-uid="ent0002" id="cluster_Mobile App (Android/iOS)"><rect fill="none" height="97" rx="2.5" ry="2.5" style="stroke:#181818;stroke-width:1;" width="678" x="75" y="44.2969"/><text fill="#000000" font-family="sans-serif" font-size="14" font-weight="bold" lengthAdjust="spacing" textLength="200.1494" x="313.9253" y="59.292">Mobile App (Android/iOS)</text></g><!--cluster Backend Services--><g class="cluster" data-entity="Backend Services" data-source-line="9" data-uid="ent0006" id="cluster_Backend Services"><rect fill="none" height="203" rx="2.5" ry="2.5" style="stroke:#181818;stroke-width:1;" width="832" x="103" y="165.2969"/><text fill="#000000" font-family="sans-serif" font-size="14" font-weight="bold" lengthAdjust="spacing" textLength="138.6191" x="449.6904" y="180.292">Backend Services</text></g><!--cluster AI & Underwriting Engine--><g class="cluster" data-entity="AI &amp; Underwriting Engine" data-source-line="17" data-uid="ent0012" id="cluster_AI &amp; Underwriting Engine"><rect fill="none" height="97" rx="2.5" ry="2.5" style="stroke:#181818;stroke-width:1;" width="958" x="945" y="392.2969"/><text fill="#000000" font-family="sans-serif" font-size="14" font-weight="bold" lengthAdjust="spacing" textLength="200.5596" x="1323.7202" y="407.292">AI &amp; Underwriting Engine</text></g><!--cluster Data Sources--><g class="cluster" data-entity="Data Sources" data-source-line="23" data-uid="ent0016" id="cluster_Data Sources"><rect fill="none" height="97" rx="2.5" ry="2.5" style="stroke:#181818;stroke-width:1;" width="945" x="444" y="513.2969"/><text fill="#000000" font-family="sans-serif" font-size="14" font-weight="bold" lengthAdjust="spacing" textLength="104.7813" x="864.1094" y="528.292">Data Sources</text></g><!--cluster Database--><g class="cluster" data-entity="Database" data-source-line="30" data-uid="ent0021" id="cluster_Database"><rect fill="none" height="97" rx="2.5" ry="2.5" style="stroke:#181818;stroke-width:1;" width="413" x="7" y="513.2969"/><text fill="#000000" font-family="sans-serif" font-size="14" font-weight="bold" lengthAdjust="spacing" textLength="74.5049" x="176.2476" y="528.292">Database</text></g><!--cluster Payment Systems--><g class="cluster" data-entity="Payment Systems" data-source-line="36" data-uid="ent0025" id="cluster_Payment Systems"><rect fill="none" height="97" rx="2.5" ry="2.5" style="stroke:#181818;stroke-width:1;" width="438" x="1174" y="271.2969"/><text fill="#000000" font-family="sans-serif" font-size="14" font-weight="bold" lengthAdjust="spacing" textLength="141.1006" x="1322.4497" y="286.292">Payment Systems</text></g><!--entity User Interface--><g class="entity" data-entity="User Interface" data-source-line="4" data-uid="ent0003" id="entity_User Interface"><rect fill="#F1F1F1" height="46.2969" rx="2.5" ry="2.5" style="stroke:#181818;stroke-width:0.5;" width="139.0391" x="597.5" y="79.2969"/><rect fill="#F1F1F1" height="10" style="stroke:#181818;stroke-width:0.5;" width="15" x="716.5391" y="84.2969"/><rect fill="#F1F1F1" height="2" style="stroke:#181818;stroke-width:0.5;" width="4" x="714.5391" y="86.2969"/><rect fill="#F1F1F1" height="2" style="stroke:#181818;stroke-width:0.5;" width="4" x="714.5391" y="90.2969"/><text fill="#000000" font-family="sans-serif" font-size="14" lengthAdjust="spacing" textLength="99.0391" x="612.5" y="112.292">User Interface</text></g><!--entity Voice/Chat AI Assistant--><g class="entity" data-entity="Voice/Chat AI Assistant" data-source-line="5" data-uid="ent0004" id="entity_Voice/Chat AI Assistant"><rect fill="#F1F1F1" height="46.2969" rx="2.5" ry="2.5" style="stroke:#181818;stroke-width:0.5;" width="202.1621" x="360" y="79.2969"/><rect fill="#F1F1F1" height="10" style="stroke:#181818;stroke-width:0.5;" width="15" x="542.1621" y="84.2969"/><rect fill="#F1F1F1" height="2" style="stroke:#181818;stroke-width:0.5;" width="4" x="540.1621" y="86.2969"/><rect fill="#F1F1F1" height="2" style="stroke:#181818;stroke-width:0.5;" width="4" x="540.1621" y="90.2969"/><text fill="#000000" font-family="sans-serif" font-size="14" lengthAdjust="spacing" textLength="162.1621" x="375" y="112.292">Voice/Chat AI Assistant</text></g><!--entity Offline Cache + Retry Logic--><g class="entity" data-entity="Offline Cache + Retry Logic" data-source-line="6" data-uid="ent0005" id="entity_Offline Cache + Retry Logic"><rect fill="#F1F1F1" height="46.2969" rx="2.5" ry="2.5" style="stroke:#181818;stroke-width:0.5;" width="233.9219" x="91" y="79.2969"/><rect fill="#F1F1F1" height="10" style="stroke:#181818;stroke-width:0.5;" width="15" x="304.9219" y="84.2969"/><rect fill="#F1F1F1" height="2" style="stroke:#181818;stroke-width:0.5;" width="4" x="302.9219" y="86.2969"/><rect fill="#F1F1F1" height="2" style="stroke:#181818;stroke-width:0.5;" width="4" x="302.9219" y="90.2969"/><text fill="#000000" font-family="sans-serif" font-size="14" lengthAdjust="spacing" textLength="193.9219" x="106" y="112.292">Offline Cache + Retry Logic</text></g><!--entity API Gateway--><g class="entity" data-entity="API Gateway" data-source-line="10" data-uid="ent0007" id="entity_API Gateway"><rect fill="#F1F1F1" height="46.2969" rx="2.5" ry="2.5" style="stroke:#181818;stroke-width:0.5;" width="128.4434" x="791" y="200.2969"/><rect fill="#F1F1F1" height="10" style="stroke:#181818;stroke-width:0.5;" width="15" x="899.4434" y="205.2969"/><rect fill="#F1F1F1" height="2" style="stroke:#181818;stroke-width:0.5;" width="4" x="897.4434" y="207.2969"/><rect fill="#F1F1F1" height="2" style="stroke:#181818;stroke-width:0.5;" width="4" x="897.4434" y="211.2969"/><text fill="#000000" font-family="sans-serif" font-size="14" lengthAdjust="spacing" textLength="88.4434" x="806" y="233.292">API Gateway</text></g><!--entity Loan Application Service--><g class="entity" data-entity="Loan Application Service" data-source-line="11" data-uid="ent0008" id="entity_Loan Application Service"><rect fill="#F1F1F1" height="46.2969" rx="2.5" ry="2.5" style="stroke:#181818;stroke-width:0.5;" width="212.6826" x="118.5" y="200.2969"/><rect fill="#F1F1F1" height="10" style="stroke:#181818;stroke-width:0.5;" width="15" x="311.1826" y="205.2969"/><rect fill="#F1F1F1" height="2" style="stroke:#181818;stroke-width:0.5;" width="4" x="309.1826" y="207.2969"/><rect fill="#F1F1F1" height="2" style="stroke:#181818;stroke-width:0.5;" width="4" x="309.1826" y="211.2969"/><text fill="#000000" font-family="sans-serif" font-size="14" lengthAdjust="spacing" textLength="172.6826" x="133.5" y="233.292">Loan Application Service</text></g><!--entity User Profile Service--><g class="entity" data-entity="User Profile Service" data-source-line="12" data-uid="ent0009" id="entity_User Profile Service"><rect fill="#F1F1F1" height="46.2969" rx="2.5" ry="2.5" style="stroke:#181818;stroke-width:0.5;" width="176.6367" x="366.5" y="200.2969"/><rect fill="#F1F1F1" height="10" style="stroke:#181818;stroke-width:0.5;" width="15" x="523.1367" y="205.2969"/><rect fill="#F1F1F1" height="2" style="stroke:#181818;stroke-width:0.5;" width="4" x="521.1367" y="207.2969"/><rect fill="#F1F1F1" height="2" style="stroke:#181818;stroke-width:0.5;" width="4" x="521.1367" y="211.2969"/><text fill="#000000" font-family="sans-serif" font-size="14" lengthAdjust="spacing" textLength="136.6367" x="381.5" y="233.292">User Profile Service</text></g><!--entity Document Management Service--><g class="entity" data-entity="Document Management Service" data-source-line="13" data-uid="ent0010" id="entity_Document Management Service"><rect fill="#F1F1F1" height="46.2969" rx="2.5" ry="2.5" style="stroke:#181818;stroke-width:0.5;" width="265.3945" x="119.5" y="306.2969"/><rect fill="#F1F1F1" height="10" style="stroke:#181818;stroke-width:0.5;" width="15" x="364.8945" y="311.2969"/><rect fill="#F1F1F1" height="2" style="stroke:#181818;stroke-width:0.5;" width="4" x="362.8945" y="313.2969"/><rect fill="#F1F1F1" height="2" style="stroke:#181818;stroke-width:0.5;" width="4" x="362.8945" y="317.2969"/><text fill="#000000" font-family="sans-serif" font-size="14" lengthAdjust="spacing" textLength="225.3945" x="134.5" y="339.292">Document Management Service</text></g><!--entity Notification Service--><g class="entity" data-entity="Notification Service" data-source-line="14" data-uid="ent0011" id="entity_Notification Service"><rect fill="#F1F1F1" height="46.2969" rx="2.5" ry="2.5" style="stroke:#181818;stroke-width:0.5;" width="176.5205" x="578.5" y="200.2969"/><rect fill="#F1F1F1" height="10" style="stroke:#181818;stroke-width:0.5;" width="15" x="735.0205" y="205.2969"/><rect fill="#F1F1F1" height="2" style="stroke:#181818;stroke-width:0.5;" width="4" x="733.0205" y="207.2969"/><rect fill="#F1F1F1" height="2" style="stroke:#181818;stroke-width:0.5;" width="4" x="733.0205" y="211.2969"/><text fill="#000000" font-family="sans-serif" font-size="14" lengthAdjust="spacing" textLength="136.5205" x="593.5" y="233.292">Notification Service</text></g><!--entity LLM-based Document Understanding--><g class="entity" data-entity="LLM-based Document Understanding" data-source-line="18" data-uid="ent0013" id="entity_LLM-based Document Understanding"><rect fill="#F1F1F1" height="46.2969" rx="2.5" ry="2.5" style="stroke:#181818;stroke-width:0.5;" width="299.5674" x="1587" y="427.2969"/><rect fill="#F1F1F1" height="10" style="stroke:#181818;stroke-width:0.5;" width="15" x="1866.5674" y="432.2969"/><rect fill="#F1F1F1" height="2" style="stroke:#181818;stroke-width:0.5;" width="4" x="1864.5674" y="434.2969"/><rect fill="#F1F1F1" height="2" style="stroke:#181818;stroke-width:0.5;" width="4" x="1864.5674" y="438.2969"/><text fill="#000000" font-family="sans-serif" font-size="14" lengthAdjust="spacing" textLength="259.5674" x="1602" y="460.292">LLM-based Document Understanding</text></g><!--entity AI Credit Scoring Model (Alt-data + Bureau)--><g class="entity" data-entity="AI Credit Scoring Model (Alt-data + Bureau)" data-source-line="19" data-uid="ent0014" id="entity_AI Credit Scoring Model (Alt-data + Bureau)"><rect fill="#F1F1F1" height="46.2969" rx="2.5" ry="2.5" style="stroke:#181818;stroke-width:0.5;" width="345.9014" x="1206" y="427.2969"/><rect fill="#F1F1F1" height="10" style="stroke:#181818;stroke-width:0.5;" width="15" x="1531.9014" y="432.2969"/><rect fill="#F1F1F1" height="2" style="stroke:#181818;stroke-width:0.5;" width="4" x="1529.9014" y="434.2969"/><rect fill="#F1F1F1" height="2" style="stroke:#181818;stroke-width:0.5;" width="4" x="1529.9014" y="438.2969"/><text fill="#000000" font-family="sans-serif" font-size="14" lengthAdjust="spacing" textLength="305.9014" x="1221" y="460.292">AI Credit Scoring Model (Alt-data + Bureau)</text></g><!--entity Risk Assessment Engine--><g class="entity" data-entity="Risk Assessment Engine" data-source-line="20" data-uid="ent0015" id="entity_Risk Assessment Engine"><rect fill="#F1F1F1" height="46.2969" rx="2.5" ry="2.5" style="stroke:#181818;stroke-width:0.5;" width="209.8799" x="961" y="427.2969"/><rect fill="#F1F1F1" height="10" style="stroke:#181818;stroke-width:0.5;" width="15" x="1150.8799" y="432.2969"/><rect fill="#F1F1F1" height="2" style="stroke:#181818;stroke-width:0.5;" width="4" x="1148.8799" y="434.2969"/><rect fill="#F1F1F1" height="2" style="stroke:#181818;stroke-width:0.5;" width="4" x="1148.8799" y="438.2969"/><text fill="#000000" font-family="sans-serif" font-size="14" lengthAdjust="spacing" textLength="169.8799" x="976" y="460.292">Risk Assessment Engine</text></g><!--entity Credit Bureau APIs--><g class="entity" data-entity="Credit Bureau APIs" data-source-line="24" data-uid="ent0017" id="entity_Credit Bureau APIs"><rect fill="#F1F1F1" height="46.2969" rx="2.5" ry="2.5" style="stroke:#181818;stroke-width:0.5;" width="171.0518" x="1201.5" y="548.2969"/><rect fill="#F1F1F1" height="10" style="stroke:#181818;stroke-width:0.5;" width="15" x="1352.5518" y="553.2969"/><rect fill="#F1F1F1" height="2" style="stroke:#181818;stroke-width:0.5;" width="4" x="1350.5518" y="555.2969"/><rect fill="#F1F1F1" height="2" style="stroke:#181818;stroke-width:0.5;" width="4" x="1350.5518" y="559.2969"/><text fill="#000000" font-family="sans-serif" font-size="14" lengthAdjust="spacing" textLength="131.0518" x="1216.5" y="581.292">Credit Bureau APIs</text></g><!--entity Bank Statement APIs--><g class="entity" data-entity="Bank Statement APIs" data-source-line="25" data-uid="ent0018" id="entity_Bank Statement APIs"><rect fill="#F1F1F1" height="46.2969" rx="2.5" ry="2.5" style="stroke:#181818;stroke-width:0.5;" width="187.1777" x="979.5" y="548.2969"/><rect fill="#F1F1F1" height="10" style="stroke:#181818;stroke-width:0.5;" width="15" x="1146.6777" y="553.2969"/><rect fill="#F1F1F1" height="2" style="stroke:#181818;stroke-width:0.5;" width="4" x="1144.6777" y="555.2969"/><rect fill="#F1F1F1" height="2" style="stroke:#181818;stroke-width:0.5;" width="4" x="1144.6777" y="559.2969"/><text fill="#000000" font-family="sans-serif" font-size="14" lengthAdjust="spacing" textLength="147.1777" x="994.5" y="581.292">Bank Statement APIs</text></g><!--entity Telecom / SMS Data--><g class="entity" data-entity="Telecom / SMS Data" data-source-line="26" data-uid="ent0019" id="entity_Telecom / SMS Data"><rect fill="#F1F1F1" height="46.2969" rx="2.5" ry="2.5" style="stroke:#181818;stroke-width:0.5;" width="180.916" x="763.5" y="548.2969"/><rect fill="#F1F1F1" height="10" style="stroke:#181818;stroke-width:0.5;" width="15" x="924.416" y="553.2969"/><rect fill="#F1F1F1" height="2" style="stroke:#181818;stroke-width:0.5;" width="4" x="922.416" y="555.2969"/><rect fill="#F1F1F1" height="2" style="stroke:#181818;stroke-width:0.5;" width="4" x="922.416" y="559.2969"/><text fill="#000000" font-family="sans-serif" font-size="14" lengthAdjust="spacing" textLength="140.916" x="778.5" y="581.292">Telecom / SMS Data</text></g><!--entity User Documents (Aadhaar, PAN)--><g class="entity" data-entity="User Documents (Aadhaar, PAN)" data-source-line="27" data-uid="ent0020" id="entity_User Documents (Aadhaar, PAN)"><rect fill="#F1F1F1" height="46.2969" rx="2.5" ry="2.5" style="stroke:#181818;stroke-width:0.5;" width="267.7803" x="460" y="548.2969"/><rect fill="#F1F1F1" height="10" style="stroke:#181818;stroke-width:0.5;" width="15" x="707.7803" y="553.2969"/><rect fill="#F1F1F1" height="2" style="stroke:#181818;stroke-width:0.5;" width="4" x="705.7803" y="555.2969"/><rect fill="#F1F1F1" height="2" style="stroke:#181818;stroke-width:0.5;" width="4" x="705.7803" y="559.2969"/><text fill="#000000" font-family="sans-serif" font-size="14" lengthAdjust="spacing" textLength="227.7803" x="475" y="581.292">User Documents (Aadhaar, PAN)</text></g><!--entity User DB--><g class="entity" data-entity="User DB" data-source-line="31" data-uid="ent0022" id="entity_User DB"><rect fill="#F1F1F1" height="46.2969" rx="2.5" ry="2.5" style="stroke:#181818;stroke-width:0.5;" width="96.7451" x="172.5" y="548.2969"/><rect fill="#F1F1F1" height="10" style="stroke:#181818;stroke-width:0.5;" width="15" x="249.2451" y="553.2969"/><rect fill="#F1F1F1" height="2" style="stroke:#181818;stroke-width:0.5;" width="4" x="247.2451" y="555.2969"/><rect fill="#F1F1F1" height="2" style="stroke:#181818;stroke-width:0.5;" width="4" x="247.2451" y="559.2969"/><text fill="#000000" font-family="sans-serif" font-size="14" lengthAdjust="spacing" textLength="56.7451" x="187.5" y="581.292">User DB</text></g><!--entity Loan DB--><g class="entity" data-entity="Loan DB" data-source-line="32" data-uid="ent0023" id="entity_Loan DB"><rect fill="#F1F1F1" height="46.2969" rx="2.5" ry="2.5" style="stroke:#181818;stroke-width:0.5;" width="98.6523" x="304.5" y="548.2969"/><rect fill="#F1F1F1" height="10" style="stroke:#181818;stroke-width:0.5;" width="15" x="383.1523" y="553.2969"/><rect fill="#F1F1F1" height="2" style="stroke:#181818;stroke-width:0.5;" width="4" x="381.1523" y="555.2969"/><rect fill="#F1F1F1" height="2" style="stroke:#181818;stroke-width:0.5;" width="4" x="381.1523" y="559.2969"/><text fill="#000000" font-family="sans-serif" font-size="14" lengthAdjust="spacing" textLength="58.6523" x="319.5" y="581.292">Loan DB</text></g><!--entity Audit Logs--><g class="entity" data-entity="Audit Logs" data-source-line="33" data-uid="ent0024" id="entity_Audit Logs"><rect fill="#F1F1F1" height="46.2969" rx="2.5" ry="2.5" style="stroke:#181818;stroke-width:0.5;" width="113.7119" x="23" y="548.2969"/><rect fill="#F1F1F1" height="10" style="stroke:#181818;stroke-width:0.5;" width="15" x="116.7119" y="553.2969"/><rect fill="#F1F1F1" height="2" style="stroke:#181818;stroke-width:0.5;" width="4" x="114.7119" y="555.2969"/><rect fill="#F1F1F1" height="2" style="stroke:#181818;stroke-width:0.5;" width="4" x="114.7119" y="559.2969"/><text fill="#000000" font-family="sans-serif" font-size="14" lengthAdjust="spacing" textLength="73.7119" x="38" y="581.292">Audit Logs</text></g><!--entity Banking Partner API--><g class="entity" data-entity="Banking Partner API" data-source-line="37" data-uid="ent0026" id="entity_Banking Partner API"><rect fill="#F1F1F1" height="46.2969" rx="2.5" ry="2.5" style="stroke:#181818;stroke-width:0.5;" width="179.3711" x="1416.5" y="306.2969"/><rect fill="#F1F1F1" height="10" style="stroke:#181818;stroke-width:0.5;" width="15" x="1575.8711" y="311.2969"/><rect fill="#F1F1F1" height="2" style="stroke:#181818;stroke-width:0.5;" width="4" x="1573.8711" y="313.2969"/><rect fill="#F1F1F1" height="2" style="stroke:#181818;stroke-width:0.5;" width="4" x="1573.8711" y="317.2969"/><text fill="#000000" font-family="sans-serif" font-size="14" lengthAdjust="spacing" textLength="139.3711" x="1431.5" y="339.292">Banking Partner API</text></g><!--entity UPI / NPCI Integration--><g class="entity" data-entity="UPI / NPCI Integration" data-source-line="38" data-uid="ent0027" id="entity_UPI / NPCI Integration"><rect fill="#F1F1F1" height="46.2969" rx="2.5" ry="2.5" style="stroke:#181818;stroke-width:0.5;" width="190.8486" x="1190.5" y="306.2969"/><rect fill="#F1F1F1" height="10" style="stroke:#181818;stroke-width:0.5;" width="15" x="1361.3486" y="311.2969"/><rect fill="#F1F1F1" height="2" style="stroke:#181818;stroke-width:0.5;" width="4" x="1359.3486" y="313.2969"/><rect fill="#F1F1F1" height="2" style="stroke:#181818;stroke-width:0.5;" width="4" x="1359.3486" y="317.2969"/><text fill="#000000" font-family="sans-serif" font-size="14" lengthAdjust="spacing" textLength="150.8486" x="1205.5" y="339.292">UPI / NPCI Integration</text></g><!--entity AI Credit Scoring Model--><g class="entity" data-entity="AI Credit Scoring Model" data-source-line="43" data-uid="ent0030" id="entity_AI Credit Scoring Model"><rect fill="#F1F1F1" height="46.2969" rx="2.5" ry="2.5" style="stroke:#181818;stroke-width:0.5;" width="204.0557" x="951" y="306.2969"/><rect fill="#F1F1F1" height="10" style="stroke:#181818;stroke-width:0.5;" width="15" x="1135.0557" y="311.2969"/><rect fill="#F1F1F1" height="2" style="stroke:#181818;stroke-width:0.5;" width="4" x="1133.0557" y="313.2969"/><rect fill="#F1F1F1" height="2" style="stroke:#181818;stroke-width:0.5;" width="4" x="1133.0557" y="317.2969"/><text fill="#000000" font-family="sans-serif" font-size="14" lengthAdjust="spacing" textLength="164.0557" x="966" y="339.292">AI Credit Scoring Model</text></g><!--link User Interface to API Gateway--><g class="link" data-entity-1="User Interface" data-entity-2="API Gateway" data-source-line="41" data-uid="lnk28" id="link_User Interface_API Gateway"><path d="M715.35,125.3969 C733.84,134.4969 754.84,145.6369 773,157.2969 C793.03,170.1569 809.4425,183.0097 825.1725,196.2697" fill="none" id="User Interface-to-API Gateway" style="stroke:#181818;stroke-width:1;"/><polygon fill="#181818" points="829.76,200.1369,825.4568,191.2778,825.9371,196.9143,820.3007,197.3945,829.76,200.1369" style="stroke:#181818;stroke-width:1;"/></g><!--link Voice/Chat AI Assistant to Loan Application Service--><g class="link" data-entity-1="Voice/Chat AI Assistant" data-entity-2="Loan Application Service" data-source-line="42" data-uid="lnk29" id="link_Voice/Chat AI Assistant_Loan Application Service"><path d="M414.24,125.4169 C394.09,135.0569 370.31,146.5769 349,157.2969 C321.21,171.2769 295.5107,184.7157 271.4507,197.4757" fill="none" id="Voice/Chat AI Assistant-to-Loan Application Service" style="stroke:#181818;stroke-width:1;"/><polygon fill="#181818" points="266.15,200.2869,275.9751,199.6039,270.5672,197.9442,272.2269,192.5363,266.15,200.2869" style="stroke:#181818;stroke-width:1;"/></g><!--link Loan Application Service to AI Credit Scoring Model--><g class="link" data-entity-1="Loan Application Service" data-entity-2="AI Credit Scoring Model" data-source-line="43" data-uid="lnk31" id="link_Loan Application Service_AI Credit Scoring Model"><path d="M331.73,244.2569 C337.56,245.0269 343.35,245.7169 349,246.2969 C478.6,259.5969 809.31,229.0169 935,263.2969 C966.82,271.9769 994.383,287.4857 1017.223,302.6657" fill="none" id="Loan Application Service-to-AI Credit Scoring Model" style="stroke:#181818;stroke-width:1;"/><polygon fill="#181818" points="1022.22,305.9869,1016.9386,297.6738,1018.0558,303.2193,1012.5104,304.3365,1022.22,305.9869" style="stroke:#181818;stroke-width:1;"/></g><!--link AI Credit Scoring Model to Risk Assessment Engine--><g class="link" data-entity-1="AI Credit Scoring Model" data-entity-2="Risk Assessment Engine" data-source-line="44" data-uid="lnk32" id="link_AI Credit Scoring Model_Risk Assessment Engine"><path d="M1055.41,352.3969 C1057.74,373.6369 1060.5685,399.6124 1062.8985,420.9424" fill="none" id="AI Credit Scoring Model-to-Risk Assessment Engine" style="stroke:#181818;stroke-width:1;"/><polygon fill="#181818" points="1063.55,426.9069,1066.549,417.5257,1063.0071,421.9364,1058.5963,418.3945,1063.55,426.9069" style="stroke:#181818;stroke-width:1;"/></g><!--link Risk Assessment Engine to Loan DB--><g class="link" data-entity-1="Risk Assessment Engine" data-entity-2="Loan DB" data-source-line="45" data-uid="lnk33" id="link_Risk Assessment Engine_Loan DB"><path d="M960.8,453.6769 C808.81,458.2669 535.94,471.1069 444,505.2969 C418.71,514.7069 398.6792,529.3102 381.6292,544.2002" fill="none" id="Risk Assessment Engine-to-Loan DB" style="stroke:#181818;stroke-width:1;"/><polygon fill="#181818" points="377.11,548.1469,386.52,545.2396,380.876,544.858,381.2577,539.214,377.11,548.1469" style="stroke:#181818;stroke-width:1;"/></g><!--link Loan Application Service to Document Management Service--><g class="link" data-entity-1="Loan Application Service" data-entity-2="Document Management Service" data-source-line="46" data-uid="lnk34" id="link_Loan Application Service_Document Management Service"><path d="M230.73,246.3569 C235.31,263.9969 240.1922,282.8294 244.7722,300.4694" fill="none" id="Loan Application Service-to-Document Management Service" style="stroke:#181818;stroke-width:1;"/><polygon fill="#181818" points="246.28,306.2769,247.8899,296.5605,245.0235,301.4373,240.1466,298.5709,246.28,306.2769" style="stroke:#181818;stroke-width:1;"/></g><!--link Document Management Service to User DB--><g class="link" data-entity-1="Document Management Service" data-entity-2="User DB" data-source-line="47" data-uid="lnk35" id="link_Document Management Service_User DB"><path d="M249.14,352.4469 C243.23,398.1669 230.5186,496.5763 224.6186,542.2563" fill="none" id="Document Management Service-to-User DB" style="stroke:#181818;stroke-width:1;"/><polygon fill="#181818" points="223.85,548.2069,228.9699,539.7934,224.4905,543.2481,221.0358,538.7686,223.85,548.2069" style="stroke:#181818;stroke-width:1;"/></g><!--link Risk Assessment Engine to Credit Bureau APIs--><g class="link" data-entity-1="Risk Assessment Engine" data-entity-2="Credit Bureau APIs" data-source-line="48" data-uid="lnk36" id="link_Risk Assessment Engine_Credit Bureau APIs"><path d="M1118.14,473.3469 C1138.93,482.6169 1162.9,493.8769 1184,505.2969 C1208.18,518.3769 1229.3504,531.6348 1249.2704,544.7648" fill="none" id="Risk Assessment Engine-to-Credit Bureau APIs" style="stroke:#181818;stroke-width:1;"/><polygon fill="#181818" points="1254.28,548.0669,1248.9669,539.7741,1250.1053,545.3152,1244.5642,546.4536,1254.28,548.0669" style="stroke:#181818;stroke-width:1;"/></g><!--link Risk Assessment Engine to Bank Statement APIs--><g class="link" data-entity-1="Risk Assessment Engine" data-entity-2="Bank Statement APIs" data-source-line="49" data-uid="lnk37" id="link_Risk Assessment Engine_Bank Statement APIs"><path d="M1067.3,473.3969 C1068.55,494.6369 1070.079,520.5872 1071.329,541.9172" fill="none" id="Risk Assessment Engine-to-Bank Statement APIs" style="stroke:#181818;stroke-width:1;"/><polygon fill="#181818" points="1071.68,547.9069,1075.1466,538.6883,1071.3875,542.9154,1067.1603,539.1563,1071.68,547.9069" style="stroke:#181818;stroke-width:1;"/></g><!--link Loan Application Service to Banking Partner API--><g class="link" data-entity-1="Loan Application Service" data-entity-2="Banking Partner API" data-source-line="50" data-uid="lnk38" id="link_Loan Application Service_Banking Partner API"><path d="M331.72,244.3469 C337.55,245.0969 343.34,245.7569 349,246.2969 C465.15,257.4669 1286.9,230.9369 1399,263.2969 C1428.65,271.8569 1453.5151,287.3368 1474.0651,302.6168" fill="none" id="Loan Application Service-to-Banking Partner API" style="stroke:#181818;stroke-width:1;"/><polygon fill="#181818" points="1478.88,306.1969,1474.0444,297.6168,1474.8676,303.2135,1469.271,304.0366,1478.88,306.1969" style="stroke:#181818;stroke-width:1;"/></g><!--link Notification Service to User Interface--><g class="link" data-entity-1="Notification Service" data-entity-2="User Interface" data-source-line="51" data-uid="lnk39" id="link_Notification Service_User Interface"><path d="M667,199.9069 C667,178.5769 667,152.6369 667,131.3969" fill="none" id="Notification Service-to-User Interface" style="stroke:#181818;stroke-width:1;"/><polygon fill="#181818" points="667,125.3969,663,134.3969,667,130.3969,671,134.3969,667,125.3969" style="stroke:#181818;stroke-width:1;"/></g><!--SRC=[XLFBRjim4BpxAnOv135QmNzGGBQ3ne3b257JI-73cbf9X6Ko8Aa4Hj5_xvBoGtOavqPeTsTdPqPEkfeWNaIF2ZSrvR3KgE1LvMG-Z7HIbH31aoohQ4dlL4Esjuvs41jHIKV2DOP68yCFL2K3tILw8ptWsniyn2etMkOJ-PoDx-3l2E3FgoK32-N852XexJ_zrbBGP5QXOneGMoijWxbGUowAMYg26OgAu1kya3DxfbXAiHxzkrWyHR4bbKD6vfq1xM5Xd2xW9phwm7r03ESnkreAT5AhO__wn2urkl0dT0jpBPeTAGS9AYmfFBlrbNQo-8HuIP2FkxyKzb6LVDo1w7APH1kqxC1fMMZsOkJS7VOmninGBdcxqCPZ93fdLnxYsaKvEcIDfcm9DkFG_oBjrajArWR4TkCrixaVp7HZph8TjhHOm2BQW3T5jONCiPu1xlJz5zKaz0uca2KPUBopdiTpBBF4l48qto6DL-C-5bw0RbBcqxDfXtVSU68S0NiDaEA-DIP4z7Y9f-o5Ij4unP3CkUN6mPZ0AfqjGXvB4ymBcDSfXIZwSPMamTIslSCf6ouTjlGxp8D3bNPkoEcXGeUd5_OhMZT_W9lLTlxavcq-VR6xFT6RoA-kwSr4_q_SeNyEn7y0]--></g></svg>