<svg xmlns="http://www.w3.org/2000/svg" xmlns:xlink="http://www.w3.org/1999/xlink" contentStyleType="text/css" data-diagram-type="ACTIVITY" height="615px" preserveAspectRatio="none" style="width:594px;height:615px;background:#FFFFFF;" version="1.1" viewBox="0 0 594 615" width="594px" zoomAndPan="magnify"><title>Retry &amp; Resume Logic for Low Bandwidth Users</title><defs/><g><g class="title" data-source-line="1"><text fill="#000000" font-family="sans-serif" font-size="14" font-weight="bold" lengthAdjust="spacing" textLength="376.6807" x="107.2036" y="32.9951">Retry &amp; Resume Logic for Low Bandwidth Users</text></g><ellipse cx="242.8647" cy="57.2969" fill="#222222" rx="10" ry="10" style="stroke:#222222;stroke-width:1;"/><rect fill="#F1F1F1" height="33.9688" rx="12.5" ry="12.5" style="stroke:#181818;stroke-width:0.5;" width="167.4688" x="159.1304" y="87.2969"/><text fill="#000000" font-family="sans-serif" font-size="12" lengthAdjust="spacing" textLength="147.4688" x="169.1304" y="108.4355">User Submits Loan Form</text><rect fill="#F1F1F1" height="33.9688" rx="12.5" ry="12.5" style="stroke:#181818;stroke-width:0.5;" width="180.7578" x="152.4858" y="141.2656"/><text fill="#000000" font-family="sans-serif" font-size="12" lengthAdjust="spacing" textLength="160.7578" x="162.4858" y="162.4043">Check Network Availability</text><polygon fill="#F1F1F1" points="197.812,195.2344,287.9175,195.2344,299.9175,207.2344,287.9175,219.2344,197.812,219.2344,185.812,207.2344,197.812,195.2344" style="stroke:#181818;stroke-width:0.5;"/><text fill="#000000" font-family="sans-serif" font-size="11" lengthAdjust="spacing" textLength="90.1055" x="197.812" y="211.0425">Network Stable?</text><text fill="#000000" font-family="sans-serif" font-size="11" lengthAdjust="spacing" textLength="19.2178" x="166.5942" y="204.6401">Yes</text><text fill="#000000" font-family="sans-serif" font-size="11" lengthAdjust="spacing" textLength="14.9585" x="299.9175" y="204.6401">No</text><rect fill="#F1F1F1" height="33.9688" rx="12.5" ry="12.5" style="stroke:#181818;stroke-width:0.5;" width="141.7168" x="27.7344" y="229.2344"/><text fill="#000000" font-family="sans-serif" font-size="12" lengthAdjust="spacing" textLength="121.7168" x="37.7344" y="250.373">Send Data to Server</text><rect fill="#F1F1F1" height="33.9688" rx="12.5" ry="12.5" style="stroke:#181818;stroke-width:0.5;" width="175.1855" x="11" y="283.2031"/><text fill="#000000" font-family="sans-serif" font-size="12" lengthAdjust="spacing" textLength="155.1855" x="21" y="304.3418">Receive Acknowledgment</text><rect fill="#F1F1F1" height="33.9688" rx="12.5" ry="12.5" style="stroke:#181818;stroke-width:0.5;" width="291.5762" x="241.3486" y="229.2344"/><text fill="#000000" font-family="sans-serif" font-size="12" lengthAdjust="spacing" textLength="271.5762" x="251.3486" y="250.373">Save Data to Local Cache (SQLite/Encrypted)</text><rect fill="#F1F1F1" height="33.9688" rx="12.5" ry="12.5" style="stroke:#181818;stroke-width:0.5;" width="275.7617" x="249.2559" y="283.2031"/><text fill="#000000" font-family="sans-serif" font-size="12" lengthAdjust="spacing" textLength="255.7617" x="259.2559" y="304.3418">Retry in Background (Exponential Backoff)</text><rect fill="#F1F1F1" height="33.9688" rx="12.5" ry="12.5" style="stroke:#181818;stroke-width:0.5;" width="341.9023" x="216.1855" y="385.5742"/><text fill="#000000" font-family="sans-serif" font-size="12" lengthAdjust="spacing" textLength="321.9023" x="226.1855" y="406.7129">Notify User "Pending Upload, will retry automatically"</text><rect fill="#F1F1F1" height="33.9688" rx="12.5" ry="12.5" style="stroke:#181818;stroke-width:0.5;" width="215.3984" x="279.4375" y="454.543"/><text fill="#000000" font-family="sans-serif" font-size="12" lengthAdjust="spacing" textLength="195.3984" x="289.4375" y="475.6816">Resume when network available</text><polygon fill="#F1F1F1" points="359.7817,337.1719,414.4917,337.1719,426.4917,349.1719,414.4917,361.1719,359.7817,361.1719,347.7817,349.1719,359.7817,337.1719" style="stroke:#181818;stroke-width:0.5;"/><text fill="#000000" font-family="sans-serif" font-size="11" lengthAdjust="spacing" textLength="19.2178" x="391.1367" y="371.3823">Yes</text><text fill="#000000" font-family="sans-serif" font-size="11" lengthAdjust="spacing" textLength="54.71" x="359.7817" y="352.98">Still Fails?</text><polygon fill="#F1F1F1" points="387.1367,508.5117,399.1367,520.5117,387.1367,532.5117,375.1367,520.5117,387.1367,508.5117" style="stroke:#181818;stroke-width:0.5;"/><polygon fill="#F1F1F1" points="242.8647,538.5117,254.8647,550.5117,242.8647,562.5117,230.8647,550.5117,242.8647,538.5117" style="stroke:#181818;stroke-width:0.5;"/><ellipse cx="242.8647" cy="593.5117" fill="none" rx="11" ry="11" style="stroke:#222222;stroke-width:1;"/><ellipse cx="242.8647" cy="593.5117" fill="#222222" rx="6" ry="6" style="stroke:#222222;stroke-width:1;"/><line style="stroke:#181818;stroke-width:1;" x1="242.8647" x2="242.8647" y1="67.2969" y2="87.2969"/><polygon fill="#181818" points="238.8647,77.2969,242.8647,87.2969,246.8647,77.2969,242.8647,81.2969" style="stroke:#181818;stroke-width:1;"/><line style="stroke:#181818;stroke-width:1;" x1="242.8647" x2="242.8647" y1="121.2656" y2="141.2656"/><polygon fill="#181818" points="238.8647,131.2656,242.8647,141.2656,246.8647,131.2656,242.8647,135.2656" style="stroke:#181818;stroke-width:1;"/><line style="stroke:#181818;stroke-width:1;" x1="98.5928" x2="98.5928" y1="263.2031" y2="283.2031"/><polygon fill="#181818" points="94.5928,273.2031,98.5928,283.2031,102.5928,273.2031,98.5928,277.2031" style="stroke:#181818;stroke-width:1;"/><line style="stroke:#181818;stroke-width:1;" x1="387.1367" x2="387.1367" y1="263.2031" y2="283.2031"/><polygon fill="#181818" points="383.1367,273.2031,387.1367,283.2031,391.1367,273.2031,387.1367,277.2031" style="stroke:#181818;stroke-width:1;"/><line style="stroke:#181818;stroke-width:1;" x1="387.1367" x2="387.1367" y1="419.543" y2="454.543"/><polygon fill="#181818" points="383.1367,444.543,387.1367,454.543,391.1367,444.543,387.1367,448.543" style="stroke:#181818;stroke-width:1;"/><line style="stroke:#181818;stroke-width:1;" x1="387.1367" x2="387.1367" y1="361.1719" y2="385.5742"/><polygon fill="#181818" points="383.1367,375.5742,387.1367,385.5742,391.1367,375.5742,387.1367,379.5742" style="stroke:#181818;stroke-width:1;"/><line style="stroke:#181818;stroke-width:1;" x1="426.4917" x2="568.0879" y1="349.1719" y2="349.1719"/><polygon fill="#181818" points="564.0879,427.043,568.0879,437.043,572.0879,427.043,568.0879,431.043" style="stroke:#181818;stroke-width:1;"/><line style="stroke:#181818;stroke-width:1;" x1="568.0879" x2="568.0879" y1="349.1719" y2="520.5117"/><line style="stroke:#181818;stroke-width:1;" x1="568.0879" x2="399.1367" y1="520.5117" y2="520.5117"/><polygon fill="#181818" points="409.1367,516.5117,399.1367,520.5117,409.1367,524.5117,405.1367,520.5117" style="stroke:#181818;stroke-width:1;"/><line style="stroke:#181818;stroke-width:1;" x1="387.1367" x2="387.1367" y1="488.5117" y2="508.5117"/><polygon fill="#181818" points="383.1367,498.5117,387.1367,508.5117,391.1367,498.5117,387.1367,502.5117" style="stroke:#181818;stroke-width:1;"/><line style="stroke:#181818;stroke-width:1;" x1="387.1367" x2="387.1367" y1="317.1719" y2="337.1719"/><polygon fill="#181818" points="383.1367,327.1719,387.1367,337.1719,391.1367,327.1719,387.1367,331.1719" style="stroke:#181818;stroke-width:1;"/><line style="stroke:#181818;stroke-width:1;" x1="185.812" x2="98.5928" y1="207.2344" y2="207.2344"/><line style="stroke:#181818;stroke-width:1;" x1="98.5928" x2="98.5928" y1="207.2344" y2="229.2344"/><polygon fill="#181818" points="94.5928,219.2344,98.5928,229.2344,102.5928,219.2344,98.5928,223.2344" style="stroke:#181818;stroke-width:1;"/><line style="stroke:#181818;stroke-width:1;" x1="299.9175" x2="387.1367" y1="207.2344" y2="207.2344"/><line style="stroke:#181818;stroke-width:1;" x1="387.1367" x2="387.1367" y1="207.2344" y2="229.2344"/><polygon fill="#181818" points="383.1367,219.2344,387.1367,229.2344,391.1367,219.2344,387.1367,223.2344" style="stroke:#181818;stroke-width:1;"/><line style="stroke:#181818;stroke-width:1;" x1="98.5928" x2="98.5928" y1="317.1719" y2="550.5117"/><line style="stroke:#181818;stroke-width:1;" x1="98.5928" x2="230.8647" y1="550.5117" y2="550.5117"/><polygon fill="#181818" points="220.8647,546.5117,230.8647,550.5117,220.8647,554.5117,224.8647,550.5117" style="stroke:#181818;stroke-width:1;"/><line style="stroke:#181818;stroke-width:1;" x1="387.1367" x2="387.1367" y1="532.5117" y2="550.5117"/><line style="stroke:#181818;stroke-width:1;" x1="387.1367" x2="254.8647" y1="550.5117" y2="550.5117"/><polygon fill="#181818" points="264.8647,546.5117,254.8647,550.5117,264.8647,554.5117,260.8647,550.5117" style="stroke:#181818;stroke-width:1;"/><line style="stroke:#181818;stroke-width:1;" x1="242.8647" x2="242.8647" y1="175.2344" y2="195.2344"/><polygon fill="#181818" points="238.8647,185.2344,242.8647,195.2344,246.8647,185.2344,242.8647,189.2344" style="stroke:#181818;stroke-width:1;"/><line style="stroke:#181818;stroke-width:1;" x1="242.8647" x2="242.8647" y1="562.5117" y2="582.5117"/><polygon fill="#181818" points="238.8647,572.5117,242.8647,582.5117,246.8647,572.5117,242.8647,576.5117" style="stroke:#181818;stroke-width:1;"/><!--SRC=[NL4zRy8m4DtzAquC5KYLkfEXeXGcX5eYXew7SqbESUp8FaZpxtici7Jnn_czT_UUXSKHd4ZY12-wfsjFS0WDMwX3rDC87-YhaIjfuPme9cEIO1IppZSehvUU9IaGFUn3x0kpthPaEpYIZ25siBaXExomOvaAOxY6vVEf5BmuUb-1jEHX-KDfPG3M9VaAFb4G9419yKQnoFKJMU8RmSPsFeoEggOdBuKXbqX5mqn6HJp9Xs3HmHPjgu3o-y12RpjlupG8LQk7QBRENctQhedXghsNkzyXUDLcPUTwgEixEWzV2Zi7UpML_a-kSiSWN4_tf63nfKRODt0UNC3g5SRCZFU6U9NGex3EvwP5CPCVyOzPqpyomZa-HncJzMeph_eDOVW3]--></g></svg>