<svg xmlns="http://www.w3.org/2000/svg" xmlns:xlink="http://www.w3.org/1999/xlink" contentStyleType="text/css" data-diagram-type="DESCRIPTION" height="601px" preserveAspectRatio="none" style="width:2727px;height:601px;background:#FFFFFF;" version="1.1" viewBox="0 0 2727 601" width="2727px" zoomAndPan="magnify"><title>Tech Stack for AI Loan Underwriting App</title><defs/><g><g class="title" data-source-line="1"><text fill="#000000" font-family="sans-serif" font-size="14" font-weight="bold" lengthAdjust="spacing" textLength="321.7471" x="1195.6265" y="22.9951">Tech Stack for AI Loan Underwriting App</text></g><!--cluster Frontend (Mobile)--><g class="cluster" data-entity="Frontend (Mobile)" data-source-line="3" data-uid="ent0002" id="cluster_Frontend (Mobile)"><path d="M422.5,43.2969 L566.0635,43.2969 A3.75,3.75 0 0 1 568.5635,45.7969 L575.5635,65.5938 L1080.5,65.5938 A2.5,2.5 0 0 1 1083,68.0938 L1083,137.7969 A2.5,2.5 0 0 1 1080.5,140.2969 L422.5,140.2969 A2.5,2.5 0 0 1 420,137.7969 L420,45.7969 A2.5,2.5 0 0 1 422.5,43.2969" fill="none" style="stroke:#000000;stroke-width:1.5;"/><line style="stroke:#000000;stroke-width:1.5;" x1="420" x2="575.5635" y1="65.5938" y2="65.5938"/><text fill="#000000" font-family="sans-serif" font-size="14" font-weight="bold" lengthAdjust="spacing" textLength="142.5635" x="424" y="58.292">Frontend (Mobile)</text></g><!--cluster Backend--><g class="cluster" data-entity="Backend" data-source-line="9" data-uid="ent0006" id="cluster_Backend"><path d="M628.5,164.2969 L696.7109,164.2969 A3.75,3.75 0 0 1 699.2109,166.7969 L706.2109,186.5938 L1096.5,186.5938 A2.5,2.5 0 0 1 1099,189.0938 L1099,379.7969 A2.5,2.5 0 0 1 1096.5,382.2969 L628.5,382.2969 A2.5,2.5 0 0 1 626,379.7969 L626,166.7969 A2.5,2.5 0 0 1 628.5,164.2969" fill="none" style="stroke:#000000;stroke-width:1.5;"/><line style="stroke:#000000;stroke-width:1.5;" x1="626" x2="706.2109" y1="186.5938" y2="186.5938"/><text fill="#000000" font-family="sans-serif" font-size="14" font-weight="bold" lengthAdjust="spacing" textLength="67.2109" x="630" y="179.292">Backend</text></g><!--cluster AI/ML--><g class="cluster" data-entity="AI/ML" data-source-line="15" data-uid="ent0010" id="cluster_AI/ML"><path d="M1125.5,285.2969 L1170.5098,285.2969 A3.75,3.75 0 0 1 1173.0098,287.7969 L1180.0098,307.5938 L1466.5,307.5938 A2.5,2.5 0 0 1 1469,310.0938 L1469,591.7969 A2.5,2.5 0 0 1 1466.5,594.2969 L1125.5,594.2969 A2.5,2.5 0 0 1 1123,591.7969 L1123,287.7969 A2.5,2.5 0 0 1 1125.5,285.2969" fill="none" style="stroke:#000000;stroke-width:1.5;"/><line style="stroke:#000000;stroke-width:1.5;" x1="1123" x2="1180.0098" y1="307.5938" y2="307.5938"/><text fill="#000000" font-family="sans-serif" font-size="14" font-weight="bold" lengthAdjust="spacing" textLength="44.0098" x="1127" y="300.292">AI/ML</text></g><!--cluster Databases--><g class="cluster" data-entity="Databases" data-source-line="21" data-uid="ent0014" id="cluster_Databases"><path d="M1495.5,285.2969 L1579.3379,285.2969 A3.75,3.75 0 0 1 1581.8379,287.7969 L1588.8379,307.5938 L2159.5,307.5938 A2.5,2.5 0 0 1 2162,310.0938 L2162,379.7969 A2.5,2.5 0 0 1 2159.5,382.2969 L1495.5,382.2969 A2.5,2.5 0 0 1 1493,379.7969 L1493,287.7969 A2.5,2.5 0 0 1 1495.5,285.2969" fill="none" style="stroke:#000000;stroke-width:1.5;"/><line style="stroke:#000000;stroke-width:1.5;" x1="1493" x2="1588.8379" y1="307.5938" y2="307.5938"/><text fill="#000000" font-family="sans-serif" font-size="14" font-weight="bold" lengthAdjust="spacing" textLength="82.8379" x="1497" y="300.292">Databases</text></g><!--cluster Cloud & Infra--><g class="cluster" data-entity="Cloud &amp; Infra" data-source-line="26" data-uid="ent0017" id="cluster_Cloud &amp; Infra"><path d="M8.5,43.2969 L113.7549,43.2969 A3.75,3.75 0 0 1 116.2549,45.7969 L123.2549,65.5938 L393.5,65.5938 A2.5,2.5 0 0 1 396,68.0938 L396,258.7969 A2.5,2.5 0 0 1 393.5,261.2969 L8.5,261.2969 A2.5,2.5 0 0 1 6,258.7969 L6,45.7969 A2.5,2.5 0 0 1 8.5,43.2969" fill="none" style="stroke:#000000;stroke-width:1.5;"/><line style="stroke:#000000;stroke-width:1.5;" x1="6" x2="123.2549" y1="65.5938" y2="65.5938"/><text fill="#000000" font-family="sans-serif" font-size="14" font-weight="bold" lengthAdjust="spacing" textLength="104.2549" x="10" y="58.292">Cloud &amp; Infra</text></g><!--cluster Integrations--><g class="cluster" data-entity="Integrations" data-source-line="32" data-uid="ent0021" id="cluster_Integrations"><path d="M2188.5,285.2969 L2286.6455,285.2969 A3.75,3.75 0 0 1 2289.1455,287.7969 L2296.1455,307.5938 L2717.5,307.5938 A2.5,2.5 0 0 1 2720,310.0938 L2720,379.7969 A2.5,2.5 0 0 1 2717.5,382.2969 L2188.5,382.2969 A2.5,2.5 0 0 1 2186,379.7969 L2186,287.7969 A2.5,2.5 0 0 1 2188.5,285.2969" fill="none" style="stroke:#000000;stroke-width:1.5;"/><line style="stroke:#000000;stroke-width:1.5;" x1="2186" x2="2296.1455" y1="307.5938" y2="307.5938"/><text fill="#000000" font-family="sans-serif" font-size="14" font-weight="bold" lengthAdjust="spacing" textLength="97.1455" x="2190" y="300.292">Integrations</text></g><!--entity React Native / Flutter--><g class="entity" data-entity="React Native / Flutter" data-source-line="4" data-uid="ent0003" id="entity_React Native / Flutter"><rect fill="#F1F1F1" height="46.2969" rx="2.5" ry="2.5" style="stroke:#181818;stroke-width:0.5;" width="189.666" x="877" y="78.2969"/><rect fill="#F1F1F1" height="10" style="stroke:#181818;stroke-width:0.5;" width="15" x="1046.666" y="83.2969"/><rect fill="#F1F1F1" height="2" style="stroke:#181818;stroke-width:0.5;" width="4" x="1044.666" y="85.2969"/><rect fill="#F1F1F1" height="2" style="stroke:#181818;stroke-width:0.5;" width="4" x="1044.666" y="89.2969"/><text fill="#000000" font-family="sans-serif" font-size="14" lengthAdjust="spacing" textLength="149.666" x="892" y="111.292">React Native / Flutter</text></g><!--entity Voice + Chatbot UI--><g class="entity" data-entity="Voice + Chatbot UI" data-source-line="5" data-uid="ent0004" id="entity_Voice + Chatbot UI"><rect fill="#F1F1F1" height="46.2969" rx="2.5" ry="2.5" style="stroke:#181818;stroke-width:0.5;" width="173.458" x="668.5" y="78.2969"/><rect fill="#F1F1F1" height="10" style="stroke:#181818;stroke-width:0.5;" width="15" x="821.958" y="83.2969"/><rect fill="#F1F1F1" height="2" style="stroke:#181818;stroke-width:0.5;" width="4" x="819.958" y="85.2969"/><rect fill="#F1F1F1" height="2" style="stroke:#181818;stroke-width:0.5;" width="4" x="819.958" y="89.2969"/><text fill="#000000" font-family="sans-serif" font-size="14" lengthAdjust="spacing" textLength="133.458" x="683.5" y="111.292">Voice + Chatbot UI</text></g><!--entity Local Storage (SQLite)--><g class="entity" data-entity="Local Storage (SQLite)" data-source-line="6" data-uid="ent0005" id="entity_Local Storage (SQLite)"><rect fill="#F1F1F1" height="46.2969" rx="2.5" ry="2.5" style="stroke:#181818;stroke-width:0.5;" width="196.8301" x="436.5" y="78.2969"/><rect fill="#F1F1F1" height="10" style="stroke:#181818;stroke-width:0.5;" width="15" x="613.3301" y="83.2969"/><rect fill="#F1F1F1" height="2" style="stroke:#181818;stroke-width:0.5;" width="4" x="611.3301" y="85.2969"/><rect fill="#F1F1F1" height="2" style="stroke:#181818;stroke-width:0.5;" width="4" x="611.3301" y="89.2969"/><text fill="#000000" font-family="sans-serif" font-size="14" lengthAdjust="spacing" textLength="156.8301" x="451.5" y="111.292">Local Storage (SQLite)</text></g><!--entity Node.js / Java Spring Boot--><g class="entity" data-entity="Node.js / Java Spring Boot" data-source-line="10" data-uid="ent0007" id="entity_Node.js / Java Spring Boot"><rect fill="#F1F1F1" height="46.2969" rx="2.5" ry="2.5" style="stroke:#181818;stroke-width:0.5;" width="221.665" x="861" y="199.2969"/><rect fill="#F1F1F1" height="10" style="stroke:#181818;stroke-width:0.5;" width="15" x="1062.665" y="204.2969"/><rect fill="#F1F1F1" height="2" style="stroke:#181818;stroke-width:0.5;" width="4" x="1060.665" y="206.2969"/><rect fill="#F1F1F1" height="2" style="stroke:#181818;stroke-width:0.5;" width="4" x="1060.665" y="210.2969"/><text fill="#000000" font-family="sans-serif" font-size="14" lengthAdjust="spacing" textLength="181.665" x="876" y="232.292">Node.js / Java Spring Boot</text></g><!--entity GraphQL / REST APIs--><g class="entity" data-entity="GraphQL / REST APIs" data-source-line="11" data-uid="ent0008" id="entity_GraphQL / REST APIs"><rect fill="#F1F1F1" height="46.2969" rx="2.5" ry="2.5" style="stroke:#181818;stroke-width:0.5;" width="185.2842" x="641.5" y="199.2969"/><rect fill="#F1F1F1" height="10" style="stroke:#181818;stroke-width:0.5;" width="15" x="806.7842" y="204.2969"/><rect fill="#F1F1F1" height="2" style="stroke:#181818;stroke-width:0.5;" width="4" x="804.7842" y="206.2969"/><rect fill="#F1F1F1" height="2" style="stroke:#181818;stroke-width:0.5;" width="4" x="804.7842" y="210.2969"/><text fill="#000000" font-family="sans-serif" font-size="14" lengthAdjust="spacing" textLength="145.2842" x="656.5" y="232.292">GraphQL / REST APIs</text></g><!--entity Redis for Caching--><g class="entity" data-entity="Redis for Caching" data-source-line="12" data-uid="ent0009" id="entity_Redis for Caching"><rect fill="#F1F1F1" height="46.2969" rx="2.5" ry="2.5" style="stroke:#181818;stroke-width:0.5;" width="163.1357" x="890.5" y="320.2969"/><rect fill="#F1F1F1" height="10" style="stroke:#181818;stroke-width:0.5;" width="15" x="1033.6357" y="325.2969"/><rect fill="#F1F1F1" height="2" style="stroke:#181818;stroke-width:0.5;" width="4" x="1031.6357" y="327.2969"/><rect fill="#F1F1F1" height="2" style="stroke:#181818;stroke-width:0.5;" width="4" x="1031.6357" y="331.2969"/><text fill="#000000" font-family="sans-serif" font-size="14" lengthAdjust="spacing" textLength="123.1357" x="905.5" y="353.292">Redis for Caching</text></g><!--entity LLMs (for NLP + Document Processing)--><g class="entity" data-entity="LLMs (for NLP + Document Processing)" data-source-line="16" data-uid="ent0011" id="entity_LLMs (for NLP + Document Processing)"><rect fill="#F1F1F1" height="46.2969" rx="2.5" ry="2.5" style="stroke:#181818;stroke-width:0.5;" width="313.6836" x="1139" y="320.2969"/><rect fill="#F1F1F1" height="10" style="stroke:#181818;stroke-width:0.5;" width="15" x="1432.6836" y="325.2969"/><rect fill="#F1F1F1" height="2" style="stroke:#181818;stroke-width:0.5;" width="4" x="1430.6836" y="327.2969"/><rect fill="#F1F1F1" height="2" style="stroke:#181818;stroke-width:0.5;" width="4" x="1430.6836" y="331.2969"/><text fill="#000000" font-family="sans-serif" font-size="14" lengthAdjust="spacing" textLength="273.6836" x="1154" y="353.292">LLMs (for NLP + Document Processing)</text></g><!--entity TensorFlow / PyTorch Models--><g class="entity" data-entity="TensorFlow / PyTorch Models" data-source-line="17" data-uid="ent0012" id="entity_TensorFlow / PyTorch Models"><rect fill="#F1F1F1" height="46.2969" rx="2.5" ry="2.5" style="stroke:#181818;stroke-width:0.5;" width="243.1777" x="1174.5" y="426.2969"/><rect fill="#F1F1F1" height="10" style="stroke:#181818;stroke-width:0.5;" width="15" x="1397.6777" y="431.2969"/><rect fill="#F1F1F1" height="2" style="stroke:#181818;stroke-width:0.5;" width="4" x="1395.6777" y="433.2969"/><rect fill="#F1F1F1" height="2" style="stroke:#181818;stroke-width:0.5;" width="4" x="1395.6777" y="437.2969"/><text fill="#000000" font-family="sans-serif" font-size="14" lengthAdjust="spacing" textLength="203.1777" x="1189.5" y="459.292">TensorFlow / PyTorch Models</text></g><!--entity XGBoost + Alt-Data Models--><g class="entity" data-entity="XGBoost + Alt-Data Models" data-source-line="18" data-uid="ent0013" id="entity_XGBoost + Alt-Data Models"><rect fill="#F1F1F1" height="46.2969" rx="2.5" ry="2.5" style="stroke:#181818;stroke-width:0.5;" width="231.8027" x="1180" y="532.2969"/><rect fill="#F1F1F1" height="10" style="stroke:#181818;stroke-width:0.5;" width="15" x="1391.8027" y="537.2969"/><rect fill="#F1F1F1" height="2" style="stroke:#181818;stroke-width:0.5;" width="4" x="1389.8027" y="539.2969"/><rect fill="#F1F1F1" height="2" style="stroke:#181818;stroke-width:0.5;" width="4" x="1389.8027" y="543.2969"/><text fill="#000000" font-family="sans-serif" font-size="14" lengthAdjust="spacing" textLength="191.8027" x="1195" y="565.292">XGBoost + Alt-Data Models</text></g><!--entity PostgreSQL (User + Loan Data)--><g class="entity" data-entity="PostgreSQL (User + Loan Data)" data-source-line="22" data-uid="ent0015" id="entity_PostgreSQL (User + Loan Data)"><rect fill="#F1F1F1" height="46.2969" rx="2.5" ry="2.5" style="stroke:#181818;stroke-width:0.5;" width="260.3633" x="1886" y="320.2969"/><rect fill="#F1F1F1" height="10" style="stroke:#181818;stroke-width:0.5;" width="15" x="2126.3633" y="325.2969"/><rect fill="#F1F1F1" height="2" style="stroke:#181818;stroke-width:0.5;" width="4" x="2124.3633" y="327.2969"/><rect fill="#F1F1F1" height="2" style="stroke:#181818;stroke-width:0.5;" width="4" x="2124.3633" y="331.2969"/><text fill="#000000" font-family="sans-serif" font-size="14" lengthAdjust="spacing" textLength="220.3633" x="1901" y="353.292">PostgreSQL (User + Loan Data)</text></g><!--entity MongoDB (Unstructured Data, Documents)--><g class="entity" data-entity="MongoDB (Unstructured Data, Documents)" data-source-line="23" data-uid="ent0016" id="entity_MongoDB (Unstructured Data, Documents)"><rect fill="#F1F1F1" height="46.2969" rx="2.5" ry="2.5" style="stroke:#181818;stroke-width:0.5;" width="341.1777" x="1509.5" y="320.2969"/><rect fill="#F1F1F1" height="10" style="stroke:#181818;stroke-width:0.5;" width="15" x="1830.6777" y="325.2969"/><rect fill="#F1F1F1" height="2" style="stroke:#181818;stroke-width:0.5;" width="4" x="1828.6777" y="327.2969"/><rect fill="#F1F1F1" height="2" style="stroke:#181818;stroke-width:0.5;" width="4" x="1828.6777" y="331.2969"/><text fill="#000000" font-family="sans-serif" font-size="14" lengthAdjust="spacing" textLength="301.1777" x="1524.5" y="353.292">MongoDB (Unstructured Data, Documents)</text></g><!--entity AWS/GCP/Azure--><g class="entity" data-entity="AWS/GCP/Azure" data-source-line="27" data-uid="ent0018" id="entity_AWS/GCP/Azure"><rect fill="#F1F1F1" height="46.2969" rx="2.5" ry="2.5" style="stroke:#181818;stroke-width:0.5;" width="150.9746" x="22.5" y="78.2969"/><rect fill="#F1F1F1" height="10" style="stroke:#181818;stroke-width:0.5;" width="15" x="153.4746" y="83.2969"/><rect fill="#F1F1F1" height="2" style="stroke:#181818;stroke-width:0.5;" width="4" x="151.4746" y="85.2969"/><rect fill="#F1F1F1" height="2" style="stroke:#181818;stroke-width:0.5;" width="4" x="151.4746" y="89.2969"/><text fill="#000000" font-family="sans-serif" font-size="14" lengthAdjust="spacing" textLength="110.9746" x="37.5" y="111.292">AWS/GCP/Azure</text></g><!--entity S3 / Cloud Storage--><g class="entity" data-entity="S3 / Cloud Storage" data-source-line="28" data-uid="ent0019" id="entity_S3 / Cloud Storage"><rect fill="#F1F1F1" height="46.2969" rx="2.5" ry="2.5" style="stroke:#181818;stroke-width:0.5;" width="170.6279" x="208.5" y="78.2969"/><rect fill="#F1F1F1" height="10" style="stroke:#181818;stroke-width:0.5;" width="15" x="359.1279" y="83.2969"/><rect fill="#F1F1F1" height="2" style="stroke:#181818;stroke-width:0.5;" width="4" x="357.1279" y="85.2969"/><rect fill="#F1F1F1" height="2" style="stroke:#181818;stroke-width:0.5;" width="4" x="357.1279" y="89.2969"/><text fill="#000000" font-family="sans-serif" font-size="14" lengthAdjust="spacing" textLength="130.6279" x="223.5" y="111.292">S3 / Cloud Storage</text></g><!--entity Kubernetes / Docker--><g class="entity" data-entity="Kubernetes / Docker" data-source-line="29" data-uid="ent0020" id="entity_Kubernetes / Docker"><rect fill="#F1F1F1" height="46.2969" rx="2.5" ry="2.5" style="stroke:#181818;stroke-width:0.5;" width="183.3291" x="22.5" y="199.2969"/><rect fill="#F1F1F1" height="10" style="stroke:#181818;stroke-width:0.5;" width="15" x="185.8291" y="204.2969"/><rect fill="#F1F1F1" height="2" style="stroke:#181818;stroke-width:0.5;" width="4" x="183.8291" y="206.2969"/><rect fill="#F1F1F1" height="2" style="stroke:#181818;stroke-width:0.5;" width="4" x="183.8291" y="210.2969"/><text fill="#000000" font-family="sans-serif" font-size="14" lengthAdjust="spacing" textLength="143.3291" x="37.5" y="232.292">Kubernetes / Docker</text></g><!--entity UPI/NPCI--><g class="entity" data-entity="UPI/NPCI" data-source-line="33" data-uid="ent0022" id="entity_UPI/NPCI"><rect fill="#F1F1F1" height="46.2969" rx="2.5" ry="2.5" style="stroke:#181818;stroke-width:0.5;" width="100.3545" x="2604" y="320.2969"/><rect fill="#F1F1F1" height="10" style="stroke:#181818;stroke-width:0.5;" width="15" x="2684.3545" y="325.2969"/><rect fill="#F1F1F1" height="2" style="stroke:#181818;stroke-width:0.5;" width="4" x="2682.3545" y="327.2969"/><rect fill="#F1F1F1" height="2" style="stroke:#181818;stroke-width:0.5;" width="4" x="2682.3545" y="331.2969"/><text fill="#000000" font-family="sans-serif" font-size="14" lengthAdjust="spacing" textLength="60.3545" x="2619" y="353.292">UPI/NPCI</text></g><!--entity Credit Bureau API--><g class="entity" data-entity="Credit Bureau API" data-source-line="34" data-uid="ent0023" id="entity_Credit Bureau API"><rect fill="#F1F1F1" height="46.2969" rx="2.5" ry="2.5" style="stroke:#181818;stroke-width:0.5;" width="163.7578" x="2405" y="320.2969"/><rect fill="#F1F1F1" height="10" style="stroke:#181818;stroke-width:0.5;" width="15" x="2548.7578" y="325.2969"/><rect fill="#F1F1F1" height="2" style="stroke:#181818;stroke-width:0.5;" width="4" x="2546.7578" y="327.2969"/><rect fill="#F1F1F1" height="2" style="stroke:#181818;stroke-width:0.5;" width="4" x="2546.7578" y="331.2969"/><text fill="#000000" font-family="sans-serif" font-size="14" lengthAdjust="spacing" textLength="123.7578" x="2420" y="353.292">Credit Bureau API</text></g><!--entity SMS/Telecom APIs--><g class="entity" data-entity="SMS/Telecom APIs" data-source-line="35" data-uid="ent0024" id="entity_SMS/Telecom APIs"><rect fill="#F1F1F1" height="46.2969" rx="2.5" ry="2.5" style="stroke:#181818;stroke-width:0.5;" width="168.0303" x="2202" y="320.2969"/><rect fill="#F1F1F1" height="10" style="stroke:#181818;stroke-width:0.5;" width="15" x="2350.0303" y="325.2969"/><rect fill="#F1F1F1" height="2" style="stroke:#181818;stroke-width:0.5;" width="4" x="2348.0303" y="327.2969"/><rect fill="#F1F1F1" height="2" style="stroke:#181818;stroke-width:0.5;" width="4" x="2348.0303" y="331.2969"/><text fill="#000000" font-family="sans-serif" font-size="14" lengthAdjust="spacing" textLength="128.0303" x="2217" y="353.292">SMS/Telecom APIs</text></g><!--link React Native / Flutter to Node.js / Java Spring Boot--><g class="link" data-entity-1="React Native / Flutter" data-entity-2="Node.js / Java Spring Boot" data-source-line="38" data-uid="lnk25" id="link_React Native / Flutter_Node.js / Java Spring Boot"><path d="M972,124.3969 C972,145.6369 972,171.5769 972,192.9069" fill="none" id="React Native / Flutter-to-Node.js / Java Spring Boot" style="stroke:#181818;stroke-width:1;"/><polygon fill="#181818" points="972,198.9069,976,189.9069,972,193.9069,968,189.9069,972,198.9069" style="stroke:#181818;stroke-width:1;"/></g><!--link Node.js / Java Spring Boot to PostgreSQL (User + Loan Data)--><g class="link" data-entity-1="Node.js / Java Spring Boot" data-entity-2="PostgreSQL (User + Loan Data)" data-source-line="39" data-uid="lnk26" id="link_Node.js / Java Spring Boot_PostgreSQL (User + Loan Data)"><path d="M1083.12,225.1169 C1289.04,229.2869 1722.2,242.0769 1868,277.2969 C1906.33,286.5569 1941.8265,302.4784 1970.8765,317.4484" fill="none" id="Node.js / Java Spring Boot-to-PostgreSQL (User + Loan Data)" style="stroke:#181818;stroke-width:1;"/><polygon fill="#181818" points="1976.21,320.1969,1970.0421,312.5186,1971.7654,317.9065,1966.3775,319.6299,1976.21,320.1969" style="stroke:#181818;stroke-width:1;"/></g><!--link Node.js / Java Spring Boot to MongoDB (Unstructured Data, Documents)--><g class="link" data-entity-1="Node.js / Java Spring Boot" data-entity-2="MongoDB (Unstructured Data, Documents)" data-source-line="40" data-uid="lnk27" id="link_Node.js / Java Spring Boot_MongoDB (Unstructured Data, Documents)"><path d="M1083.48,229.3169 C1184.83,236.2269 1338.1,250.2769 1469,277.2969 C1520.62,287.9469 1571.986,303.9562 1613.726,318.3062" fill="none" id="Node.js / Java Spring Boot-to-MongoDB (Unstructured Data, Documents)" style="stroke:#181818;stroke-width:1;"/><polygon fill="#181818" points="1619.4,320.2569,1612.1894,313.5481,1614.6716,318.6313,1609.5885,321.1135,1619.4,320.2569" style="stroke:#181818;stroke-width:1;"/></g><!--link Node.js / Java Spring Boot to Redis for Caching--><g class="link" data-entity-1="Node.js / Java Spring Boot" data-entity-2="Redis for Caching" data-source-line="41" data-uid="lnk28" id="link_Node.js / Java Spring Boot_Redis for Caching"><path d="M972,245.3969 C972,266.6369 972,292.5769 972,313.9069" fill="none" id="Node.js / Java Spring Boot-to-Redis for Caching" style="stroke:#181818;stroke-width:1;"/><polygon fill="#181818" points="972,319.9069,976,310.9069,972,314.9069,968,310.9069,972,319.9069" style="stroke:#181818;stroke-width:1;"/></g><!--link Node.js / Java Spring Boot to LLMs (for NLP + Document Processing)--><g class="link" data-entity-1="Node.js / Java Spring Boot" data-entity-2="LLMs (for NLP + Document Processing)" data-source-line="42" data-uid="lnk29" id="link_Node.js / Java Spring Boot_LLMs (for NLP + Document Processing)"><path d="M1032.18,245.3969 C1090.29,266.7369 1172.1477,296.8088 1230.2377,318.1388" fill="none" id="Node.js / Java Spring Boot-to-LLMs (for NLP + Document Processing)" style="stroke:#181818;stroke-width:1;"/><polygon fill="#181818" points="1235.87,320.2069,1228.8003,313.3498,1231.1764,318.4834,1226.0428,320.8596,1235.87,320.2069" style="stroke:#181818;stroke-width:1;"/></g><!--link LLMs (for NLP + Document Processing) to TensorFlow / PyTorch Models--><g class="link" data-entity-1="LLMs (for NLP + Document Processing)" data-entity-2="TensorFlow / PyTorch Models" data-source-line="43" data-uid="lnk30" id="link_LLMs (for NLP + Document Processing)_TensorFlow / PyTorch Models"><path d="M1296,366.3569 C1296,383.9969 1296,402.6369 1296,420.2769" fill="none" id="LLMs (for NLP + Document Processing)-to-TensorFlow / PyTorch Models" style="stroke:#181818;stroke-width:1;"/><polygon fill="#181818" points="1296,426.2769,1300,417.2769,1296,421.2769,1292,417.2769,1296,426.2769" style="stroke:#181818;stroke-width:1;"/></g><!--link TensorFlow / PyTorch Models to XGBoost + Alt-Data Models--><g class="link" data-entity-1="TensorFlow / PyTorch Models" data-entity-2="XGBoost + Alt-Data Models" data-source-line="44" data-uid="lnk31" id="link_TensorFlow / PyTorch Models_XGBoost + Alt-Data Models"><path d="M1296,472.3569 C1296,489.9969 1296,508.6369 1296,526.2769" fill="none" id="TensorFlow / PyTorch Models-to-XGBoost + Alt-Data Models" style="stroke:#181818;stroke-width:1;"/><polygon fill="#181818" points="1296,532.2769,1300,523.2769,1296,527.2769,1292,523.2769,1296,532.2769" style="stroke:#181818;stroke-width:1;"/></g><!--link Node.js / Java Spring Boot to UPI/NPCI--><g class="link" data-entity-1="Node.js / Java Spring Boot" data-entity-2="UPI/NPCI" data-source-line="45" data-uid="lnk32" id="link_Node.js / Java Spring Boot_UPI/NPCI"><path d="M1083.19,224.8169 C1437.05,229.9569 2517.97,247.9669 2587,277.2969 C2608.03,286.2369 2622.4665,300.3659 2634.5665,315.4559" fill="none" id="Node.js / Java Spring Boot-to-UPI/NPCI" style="stroke:#181818;stroke-width:1;"/><polygon fill="#181818" points="2638.32,320.1369,2635.8105,310.6131,2635.1921,316.2361,2629.5692,315.6177,2638.32,320.1369" style="stroke:#181818;stroke-width:1;"/></g><!--link Node.js / Java Spring Boot to Credit Bureau API--><g class="link" data-entity-1="Node.js / Java Spring Boot" data-entity-2="Credit Bureau API" data-source-line="46" data-uid="lnk33" id="link_Node.js / Java Spring Boot_Credit Bureau API"><path d="M1083.04,224.1069 C1395.1,226.8769 2265.28,238.0469 2388,277.2969 C2415.61,286.1269 2438.157,301.196 2457.047,316.326" fill="none" id="Node.js / Java Spring Boot-to-Credit Bureau API" style="stroke:#181818;stroke-width:1;"/><polygon fill="#181818" points="2461.73,320.0769,2457.206,311.3285,2457.8275,316.9511,2452.2049,317.5726,2461.73,320.0769" style="stroke:#181818;stroke-width:1;"/></g><!--SRC=[ZL9DZzD03BttLrXxGAsWvC0TAKrf5KYgx2O59DJ3TE9DmsR7qOopAq3yTvmFblALz3QQPxzd-pqkkKB8K9yWPQNlu9Oi-254f0piJOxsqPPScWBykfxDQYbH1SBLnf9XD3dCOpgM5IwkuDiCuDCDAismKrm-87YmgHfcj8SMUa-bHdWEmKdnaHZsOVSTaLQLY9DjYUVfTLGoBWwpxsTgAtc8sA2nennVVdP2_rOzA4Xhsywt8kAES6jLVRgE1BvvasRW9w4xzAFbfUls2vG-ISll6dxenT6W44MnWtbRkeiI6NbDkhb7mv1OqkYSD2ywpWoD8xkfw57aaYyPMJbaBFDLlUR7hOpbM2ZyYfThnUe9FTTkWQDow0RzH7eAYt8BcEyTMkdl36dhUk6OJ47hbS36iMqqDnRp3d_nDAtxuuf1HKqEpo0qjrODIlw7rDi6YUT_5OAEENqbg_IbWodTzxlcYDOWOtjtKRXhNJrd3oKFXHNZoVnSOv-4tYu9Ufy36R1aM8cEQbfNUhKuzJAiKDFzu9Hm_Yz5i5o-7hT_3Eox9quxJN3fvQUP_X78wQRBedbPMSyuck5HjEyVoVZqEhyYCbtxTu9-0000]--></g></svg>