<svg xmlns="http://www.w3.org/2000/svg" xmlns:xlink="http://www.w3.org/1999/xlink" contentStyleType="text/css" data-diagram-type="ACTIVITY" height="1401px" preserveAspectRatio="none" style="width:1108px;height:1401px;background:#FFFFFF;" version="1.1" viewBox="0 0 1108 1401" width="1108px" zoomAndPan="magnify"><title>AI-Enabled Loan Underwriting Agent - End-to-End Flow</title><defs/><g><g class="title" data-source-line="1"><text fill="#000000" font-family="sans-serif" font-size="14" font-weight="bold" lengthAdjust="spacing" textLength="433.0088" x="336.2026" y="32.9951">AI-Enabled Loan Underwriting Agent - End-to-End Flow</text></g><ellipse cx="766.8127" cy="57.2969" fill="#222222" rx="10" ry="10" style="stroke:#222222;stroke-width:1;"/><rect fill="#F1F1F1" height="33.9688" rx="12.5" ry="12.5" style="stroke:#181818;stroke-width:0.5;" width="79.3086" x="727.1584" y="87.2969"/><text fill="#000000" font-family="sans-serif" font-size="12" lengthAdjust="spacing" textLength="59.3086" x="737.1584" y="108.4355">Open App</text><rect fill="#F1F1F1" height="33.9688" rx="12.5" ry="12.5" style="stroke:#181818;stroke-width:0.5;" width="261.207" x="636.2092" y="141.2656"/><text fill="#000000" font-family="sans-serif" font-size="12" lengthAdjust="spacing" textLength="241.207" x="646.2092" y="162.4043">Select Language &amp; Accessibility Options</text><polygon fill="#F1F1F1" points="719.8425,195.2344,813.783,195.2344,825.783,207.2344,813.783,219.2344,719.8425,219.2344,707.8425,207.2344,719.8425,195.2344" style="stroke:#181818;stroke-width:0.5;"/><text fill="#000000" font-family="sans-serif" font-size="11" lengthAdjust="spacing" textLength="93.9404" x="719.8425" y="211.0425">User Registered?</text><text fill="#000000" font-family="sans-serif" font-size="11" lengthAdjust="spacing" textLength="19.2178" x="688.6248" y="204.6401">Yes</text><text fill="#000000" font-family="sans-serif" font-size="11" lengthAdjust="spacing" textLength="14.9585" x="825.783" y="204.6401">No</text><rect fill="#F1F1F1" height="33.9688" rx="12.5" ry="12.5" style="stroke:#181818;stroke-width:0.5;" width="190.6777" x="536.2668" y="229.2344"/><text fill="#000000" font-family="sans-serif" font-size="12" lengthAdjust="spacing" textLength="170.6777" x="546.2668" y="250.373">Login with Mobile No. + OTP</text><rect fill="#F1F1F1" height="33.9688" rx="12.5" ry="12.5" style="stroke:#181818;stroke-width:0.5;" width="119.334" x="842.3528" y="229.2344"/><text fill="#000000" font-family="sans-serif" font-size="12" lengthAdjust="spacing" textLength="99.334" x="852.3528" y="250.373">Enter Mobile No.</text><rect fill="#F1F1F1" height="33.9688" rx="12.5" ry="12.5" style="stroke:#181818;stroke-width:0.5;" width="116.1816" x="843.929" y="283.2031"/><text fill="#000000" font-family="sans-serif" font-size="12" lengthAdjust="spacing" textLength="96.1816" x="853.929" y="304.3418">OTP Verification</text><rect fill="#F1F1F1" height="33.9688" rx="12.5" ry="12.5" style="stroke:#181818;stroke-width:0.5;" width="281.8262" x="761.1067" y="337.1719"/><text fill="#000000" font-family="sans-serif" font-size="12" lengthAdjust="spacing" textLength="261.8262" x="771.1067" y="358.3105">Set Up Profile (Name, Address, Occupation)</text><rect fill="#F1F1F1" height="33.9688" rx="12.5" ry="12.5" style="stroke:#181818;stroke-width:0.5;" width="310.1504" x="746.9446" y="391.1406"/><text fill="#000000" font-family="sans-serif" font-size="12" lengthAdjust="spacing" textLength="290.1504" x="756.9446" y="412.2793">Upload Documents (Aadhaar, PAN, Salary Proof)</text><rect fill="#F1F1F1" height="33.9688" rx="12.5" ry="12.5" style="stroke:#181818;stroke-width:0.5;" width="235.4668" x="784.2864" y="445.1094"/><text fill="#000000" font-family="sans-serif" font-size="12" lengthAdjust="spacing" textLength="215.4668" x="794.2864" y="466.248">AI Voice/Chat Assistant Guides User</text><polygon fill="#F1F1F1" points="766.8127,485.0781,778.8127,497.0781,766.8127,509.0781,754.8127,497.0781,766.8127,485.0781" style="stroke:#181818;stroke-width:0.5;"/><rect fill="#F1F1F1" height="33.9688" rx="12.5" ry="12.5" style="stroke:#181818;stroke-width:0.5;" width="85.3145" x="724.1555" y="529.0781"/><text fill="#000000" font-family="sans-serif" font-size="12" lengthAdjust="spacing" textLength="65.3145" x="734.1555" y="550.2168">Dashboard</text><rect fill="#F1F1F1" height="33.9688" rx="12.5" ry="12.5" style="stroke:#181818;stroke-width:0.5;" width="106.9941" x="713.3157" y="583.0469"/><text fill="#000000" font-family="sans-serif" font-size="12" lengthAdjust="spacing" textLength="86.9941" x="723.3157" y="604.1855">Apply for Loan</text><rect fill="#F1F1F1" height="33.9688" rx="12.5" ry="12.5" style="stroke:#181818;stroke-width:0.5;" width="201.3359" x="666.1448" y="637.0156"/><text fill="#000000" font-family="sans-serif" font-size="12" lengthAdjust="spacing" textLength="181.3359" x="676.1448" y="658.1543">Enter Loan Amount &amp; Purpose</text><rect fill="#F1F1F1" height="33.9688" rx="12.5" ry="12.5" style="stroke:#181818;stroke-width:0.5;" width="415.0801" x="559.2727" y="690.9844"/><text fill="#000000" font-family="sans-serif" font-size="12" lengthAdjust="spacing" textLength="395.0801" x="569.2727" y="712.123">Consent for Data Access (SMS, Bank Transactions, Credit Bureau)</text><rect fill="#F1F1F1" height="33.9688" rx="12.5" ry="12.5" style="stroke:#181818;stroke-width:0.5;" width="254.082" x="639.7717" y="744.9531"/><text fill="#000000" font-family="sans-serif" font-size="12" lengthAdjust="spacing" textLength="234.082" x="649.7717" y="766.0918">AI Underwriting Engine Processes Data</text><polygon fill="#F1F1F1" points="722.3589,798.9219,811.2666,798.9219,823.2666,810.9219,811.2666,822.9219,722.3589,822.9219,710.3589,810.9219,722.3589,798.9219" style="stroke:#181818;stroke-width:0.5;"/><text fill="#000000" font-family="sans-serif" font-size="11" lengthAdjust="spacing" textLength="88.9077" x="722.3589" y="814.73">Loan Approved?</text><text fill="#000000" font-family="sans-serif" font-size="11" lengthAdjust="spacing" textLength="19.2178" x="691.1411" y="808.3276">Yes</text><text fill="#000000" font-family="sans-serif" font-size="11" lengthAdjust="spacing" textLength="14.9585" x="823.2666" y="808.3276">No</text><rect fill="#F1F1F1" height="33.9688" rx="12.5" ry="12.5" style="stroke:#181818;stroke-width:0.5;" width="283.543" x="419.2339" y="832.9219"/><text fill="#000000" font-family="sans-serif" font-size="12" lengthAdjust="spacing" textLength="263.543" x="429.2339" y="854.0605">Show Loan Offer (Amount, Interest, Tenure)</text><polygon fill="#F1F1F1" points="506.4995,886.8906,615.5112,886.8906,627.5112,898.8906,615.5112,910.8906,506.4995,910.8906,494.4995,898.8906,506.4995,886.8906" style="stroke:#181818;stroke-width:0.5;"/><text fill="#000000" font-family="sans-serif" font-size="11" lengthAdjust="spacing" textLength="109.0117" x="506.4995" y="902.6987">User Accepts Offer?</text><text fill="#000000" font-family="sans-serif" font-size="11" lengthAdjust="spacing" textLength="19.2178" x="475.2817" y="896.2964">Yes</text><text fill="#000000" font-family="sans-serif" font-size="11" lengthAdjust="spacing" textLength="14.9585" x="627.5112" y="896.2964">No</text><rect fill="#F1F1F1" height="33.9688" rx="12.5" ry="12.5" style="stroke:#181818;stroke-width:0.5;" width="193.291" x="271.3955" y="920.8906"/><text fill="#000000" font-family="sans-serif" font-size="12" lengthAdjust="spacing" textLength="173.291" x="281.3955" y="942.0293">Agree to Terms &amp; Conditions</text><rect fill="#F1F1F1" height="33.9688" rx="12.5" ry="12.5" style="stroke:#181818;stroke-width:0.5;" width="127.4609" x="304.3105" y="974.8594"/><text fill="#000000" font-family="sans-serif" font-size="12" lengthAdjust="spacing" textLength="107.4609" x="314.3105" y="995.998">e-KYC Verification</text><rect fill="#F1F1F1" height="33.9688" rx="12.5" ry="12.5" style="stroke:#181818;stroke-width:0.5;" width="204.002" x="266.04" y="1028.8281"/><text fill="#000000" font-family="sans-serif" font-size="12" lengthAdjust="spacing" textLength="184.002" x="276.04" y="1049.9668">AI Risk Check &amp; Final Approval</text><polygon fill="#F1F1F1" points="323.7966,1082.7969,412.2854,1082.7969,424.2854,1094.7969,412.2854,1106.7969,323.7966,1106.7969,311.7966,1094.7969,323.7966,1082.7969" style="stroke:#181818;stroke-width:0.5;"/><text fill="#000000" font-family="sans-serif" font-size="11" lengthAdjust="spacing" textLength="88.4888" x="323.7966" y="1098.605">Final Approved?</text><text fill="#000000" font-family="sans-serif" font-size="11" lengthAdjust="spacing" textLength="19.2178" x="292.5789" y="1092.2026">Yes</text><text fill="#000000" font-family="sans-serif" font-size="11" lengthAdjust="spacing" textLength="14.9585" x="424.2854" y="1092.2026">No</text><rect fill="#F1F1F1" height="33.9688" rx="12.5" ry="12.5" style="stroke:#181818;stroke-width:0.5;" width="207.7109" x="96.9072" y="1116.7969"/><text fill="#000000" font-family="sans-serif" font-size="12" lengthAdjust="spacing" textLength="187.7109" x="106.9072" y="1137.9355">Disburse Loan to Bank Account</text><rect fill="#F1F1F1" height="33.9688" rx="12.5" ry="12.5" style="stroke:#181818;stroke-width:0.5;" width="379.5254" x="11" y="1170.7656"/><text fill="#000000" font-family="sans-serif" font-size="12" lengthAdjust="spacing" textLength="359.5254" x="21" y="1191.9043">Show Repayment Dashboard (EMI Dates, Auto-Pay Options)</text><rect fill="#F1F1F1" height="33.9688" rx="12.5" ry="12.5" style="stroke:#181818;stroke-width:0.5;" width="279.8574" x="60.834" y="1224.7344"/><text fill="#000000" font-family="sans-serif" font-size="12" lengthAdjust="spacing" textLength="259.8574" x="70.834" y="1245.873">Send Push Notifications &amp; Voice Reminders</text><rect fill="#F1F1F1" height="33.9688" rx="12.5" ry="12.5" style="stroke:#181818;stroke-width:0.5;" width="249.5879" x="410.5254" y="1116.7969"/><text fill="#000000" font-family="sans-serif" font-size="12" lengthAdjust="spacing" textLength="229.5879" x="420.5254" y="1137.9355">Show Rejection Reason &amp; Alternatives</text><polygon fill="#F1F1F1" points="368.041,1264.7031,380.041,1276.7031,368.041,1288.7031,356.041,1276.7031,368.041,1264.7031" style="stroke:#181818;stroke-width:0.5;"/><rect fill="#F1F1F1" height="33.9688" rx="12.5" ry="12.5" style="stroke:#181818;stroke-width:0.5;" width="127.7129" x="690.1133" y="920.8906"/><text fill="#000000" font-family="sans-serif" font-size="12" lengthAdjust="spacing" textLength="107.7129" x="700.1133" y="942.0293">Exit to Dashboard</text><polygon fill="#F1F1F1" points="561.0054,1294.7031,573.0054,1306.7031,561.0054,1318.7031,549.0054,1306.7031,561.0054,1294.7031" style="stroke:#181818;stroke-width:0.5;"/><rect fill="#F1F1F1" height="33.9688" rx="12.5" ry="12.5" style="stroke:#181818;stroke-width:0.5;" width="249.5879" x="847.8262" y="832.9219"/><text fill="#000000" font-family="sans-serif" font-size="12" lengthAdjust="spacing" textLength="229.5879" x="857.8262" y="854.0605">Show Rejection Reason &amp; Alternatives</text><polygon fill="#F1F1F1" points="766.8127,1324.7031,778.8127,1336.7031,766.8127,1348.7031,754.8127,1336.7031,766.8127,1324.7031" style="stroke:#181818;stroke-width:0.5;"/><ellipse cx="766.8127" cy="1379.7031" fill="none" rx="11" ry="11" style="stroke:#222222;stroke-width:1;"/><ellipse cx="766.8127" cy="1379.7031" fill="#222222" rx="6" ry="6" style="stroke:#222222;stroke-width:1;"/><line style="stroke:#181818;stroke-width:1;" x1="766.8127" x2="766.8127" y1="67.2969" y2="87.2969"/><polygon fill="#181818" points="762.8127,77.2969,766.8127,87.2969,770.8127,77.2969,766.8127,81.2969" style="stroke:#181818;stroke-width:1;"/><line style="stroke:#181818;stroke-width:1;" x1="766.8127" x2="766.8127" y1="121.2656" y2="141.2656"/><polygon fill="#181818" points="762.8127,131.2656,766.8127,141.2656,770.8127,131.2656,766.8127,135.2656" style="stroke:#181818;stroke-width:1;"/><line style="stroke:#181818;stroke-width:1;" x1="902.0198" x2="902.0198" y1="263.2031" y2="283.2031"/><polygon fill="#181818" points="898.0198,273.2031,902.0198,283.2031,906.0198,273.2031,902.0198,277.2031" style="stroke:#181818;stroke-width:1;"/><line style="stroke:#181818;stroke-width:1;" x1="902.0198" x2="902.0198" y1="317.1719" y2="337.1719"/><polygon fill="#181818" points="898.0198,327.1719,902.0198,337.1719,906.0198,327.1719,902.0198,331.1719" style="stroke:#181818;stroke-width:1;"/><line style="stroke:#181818;stroke-width:1;" x1="902.0198" x2="902.0198" y1="371.1406" y2="391.1406"/><polygon fill="#181818" points="898.0198,381.1406,902.0198,391.1406,906.0198,381.1406,902.0198,385.1406" style="stroke:#181818;stroke-width:1;"/><line style="stroke:#181818;stroke-width:1;" x1="902.0198" x2="902.0198" y1="425.1094" y2="445.1094"/><polygon fill="#181818" points="898.0198,435.1094,902.0198,445.1094,906.0198,435.1094,902.0198,439.1094" style="stroke:#181818;stroke-width:1;"/><line style="stroke:#181818;stroke-width:1;" x1="707.8425" x2="631.6057" y1="207.2344" y2="207.2344"/><line style="stroke:#181818;stroke-width:1;" x1="631.6057" x2="631.6057" y1="207.2344" y2="229.2344"/><polygon fill="#181818" points="627.6057,219.2344,631.6057,229.2344,635.6057,219.2344,631.6057,223.2344" style="stroke:#181818;stroke-width:1;"/><line style="stroke:#181818;stroke-width:1;" x1="825.783" x2="902.0198" y1="207.2344" y2="207.2344"/><line style="stroke:#181818;stroke-width:1;" x1="902.0198" x2="902.0198" y1="207.2344" y2="229.2344"/><polygon fill="#181818" points="898.0198,219.2344,902.0198,229.2344,906.0198,219.2344,902.0198,223.2344" style="stroke:#181818;stroke-width:1;"/><line style="stroke:#181818;stroke-width:1;" x1="631.6057" x2="631.6057" y1="263.2031" y2="497.0781"/><line style="stroke:#181818;stroke-width:1;" x1="631.6057" x2="754.8127" y1="497.0781" y2="497.0781"/><polygon fill="#181818" points="744.8127,493.0781,754.8127,497.0781,744.8127,501.0781,748.8127,497.0781" style="stroke:#181818;stroke-width:1;"/><line style="stroke:#181818;stroke-width:1;" x1="902.0198" x2="902.0198" y1="479.0781" y2="497.0781"/><line style="stroke:#181818;stroke-width:1;" x1="902.0198" x2="778.8127" y1="497.0781" y2="497.0781"/><polygon fill="#181818" points="788.8127,493.0781,778.8127,497.0781,788.8127,501.0781,784.8127,497.0781" style="stroke:#181818;stroke-width:1;"/><line style="stroke:#181818;stroke-width:1;" x1="766.8127" x2="766.8127" y1="175.2344" y2="195.2344"/><polygon fill="#181818" points="762.8127,185.2344,766.8127,195.2344,770.8127,185.2344,766.8127,189.2344" style="stroke:#181818;stroke-width:1;"/><line style="stroke:#181818;stroke-width:1;" x1="766.8127" x2="766.8127" y1="509.0781" y2="529.0781"/><polygon fill="#181818" points="762.8127,519.0781,766.8127,529.0781,770.8127,519.0781,766.8127,523.0781" style="stroke:#181818;stroke-width:1;"/><line style="stroke:#181818;stroke-width:1;" x1="766.8127" x2="766.8127" y1="563.0469" y2="583.0469"/><polygon fill="#181818" points="762.8127,573.0469,766.8127,583.0469,770.8127,573.0469,766.8127,577.0469" style="stroke:#181818;stroke-width:1;"/><line style="stroke:#181818;stroke-width:1;" x1="766.8127" x2="766.8127" y1="617.0156" y2="637.0156"/><polygon fill="#181818" points="762.8127,627.0156,766.8127,637.0156,770.8127,627.0156,766.8127,631.0156" style="stroke:#181818;stroke-width:1;"/><line style="stroke:#181818;stroke-width:1;" x1="766.8127" x2="766.8127" y1="670.9844" y2="690.9844"/><polygon fill="#181818" points="762.8127,680.9844,766.8127,690.9844,770.8127,680.9844,766.8127,684.9844" style="stroke:#181818;stroke-width:1;"/><line style="stroke:#181818;stroke-width:1;" x1="766.8127" x2="766.8127" y1="724.9531" y2="744.9531"/><polygon fill="#181818" points="762.8127,734.9531,766.8127,744.9531,770.8127,734.9531,766.8127,738.9531" style="stroke:#181818;stroke-width:1;"/><line style="stroke:#181818;stroke-width:1;" x1="368.041" x2="368.041" y1="954.8594" y2="974.8594"/><polygon fill="#181818" points="364.041,964.8594,368.041,974.8594,372.041,964.8594,368.041,968.8594" style="stroke:#181818;stroke-width:1;"/><line style="stroke:#181818;stroke-width:1;" x1="368.041" x2="368.041" y1="1008.8281" y2="1028.8281"/><polygon fill="#181818" points="364.041,1018.8281,368.041,1028.8281,372.041,1018.8281,368.041,1022.8281" style="stroke:#181818;stroke-width:1;"/><line style="stroke:#181818;stroke-width:1;" x1="200.7627" x2="200.7627" y1="1150.7656" y2="1170.7656"/><polygon fill="#181818" points="196.7627,1160.7656,200.7627,1170.7656,204.7627,1160.7656,200.7627,1164.7656" style="stroke:#181818;stroke-width:1;"/><line style="stroke:#181818;stroke-width:1;" x1="200.7627" x2="200.7627" y1="1204.7344" y2="1224.7344"/><polygon fill="#181818" points="196.7627,1214.7344,200.7627,1224.7344,204.7627,1214.7344,200.7627,1218.7344" style="stroke:#181818;stroke-width:1;"/><line style="stroke:#181818;stroke-width:1;" x1="311.7966" x2="200.7627" y1="1094.7969" y2="1094.7969"/><line style="stroke:#181818;stroke-width:1;" x1="200.7627" x2="200.7627" y1="1094.7969" y2="1116.7969"/><polygon fill="#181818" points="196.7627,1106.7969,200.7627,1116.7969,204.7627,1106.7969,200.7627,1110.7969" style="stroke:#181818;stroke-width:1;"/><line style="stroke:#181818;stroke-width:1;" x1="424.2854" x2="535.3193" y1="1094.7969" y2="1094.7969"/><line style="stroke:#181818;stroke-width:1;" x1="535.3193" x2="535.3193" y1="1094.7969" y2="1116.7969"/><polygon fill="#181818" points="531.3193,1106.7969,535.3193,1116.7969,539.3193,1106.7969,535.3193,1110.7969" style="stroke:#181818;stroke-width:1;"/><line style="stroke:#181818;stroke-width:1;" x1="200.7627" x2="200.7627" y1="1258.7031" y2="1276.7031"/><line style="stroke:#181818;stroke-width:1;" x1="200.7627" x2="356.041" y1="1276.7031" y2="1276.7031"/><polygon fill="#181818" points="346.041,1272.7031,356.041,1276.7031,346.041,1280.7031,350.041,1276.7031" style="stroke:#181818;stroke-width:1;"/><line style="stroke:#181818;stroke-width:1;" x1="535.3193" x2="535.3193" y1="1150.7656" y2="1276.7031"/><line style="stroke:#181818;stroke-width:1;" x1="535.3193" x2="380.041" y1="1276.7031" y2="1276.7031"/><polygon fill="#181818" points="390.041,1272.7031,380.041,1276.7031,390.041,1280.7031,386.041,1276.7031" style="stroke:#181818;stroke-width:1;"/><line style="stroke:#181818;stroke-width:1;" x1="368.041" x2="368.041" y1="1062.7969" y2="1082.7969"/><polygon fill="#181818" points="364.041,1072.7969,368.041,1082.7969,372.041,1072.7969,368.041,1076.7969" style="stroke:#181818;stroke-width:1;"/><line style="stroke:#181818;stroke-width:1;" x1="494.4995" x2="368.041" y1="898.8906" y2="898.8906"/><line style="stroke:#181818;stroke-width:1;" x1="368.041" x2="368.041" y1="898.8906" y2="920.8906"/><polygon fill="#181818" points="364.041,910.8906,368.041,920.8906,372.041,910.8906,368.041,914.8906" style="stroke:#181818;stroke-width:1;"/><line style="stroke:#181818;stroke-width:1;" x1="627.5112" x2="753.9697" y1="898.8906" y2="898.8906"/><line style="stroke:#181818;stroke-width:1;" x1="753.9697" x2="753.9697" y1="898.8906" y2="920.8906"/><polygon fill="#181818" points="749.9697,910.8906,753.9697,920.8906,757.9697,910.8906,753.9697,914.8906" style="stroke:#181818;stroke-width:1;"/><line style="stroke:#181818;stroke-width:1;" x1="368.041" x2="368.041" y1="1288.7031" y2="1306.7031"/><line style="stroke:#181818;stroke-width:1;" x1="368.041" x2="549.0054" y1="1306.7031" y2="1306.7031"/><polygon fill="#181818" points="539.0054,1302.7031,549.0054,1306.7031,539.0054,1310.7031,543.0054,1306.7031" style="stroke:#181818;stroke-width:1;"/><line style="stroke:#181818;stroke-width:1;" x1="753.9697" x2="753.9697" y1="954.8594" y2="1306.7031"/><line style="stroke:#181818;stroke-width:1;" x1="753.9697" x2="573.0054" y1="1306.7031" y2="1306.7031"/><polygon fill="#181818" points="583.0054,1302.7031,573.0054,1306.7031,583.0054,1310.7031,579.0054,1306.7031" style="stroke:#181818;stroke-width:1;"/><line style="stroke:#181818;stroke-width:1;" x1="561.0054" x2="561.0054" y1="866.8906" y2="886.8906"/><polygon fill="#181818" points="557.0054,876.8906,561.0054,886.8906,565.0054,876.8906,561.0054,880.8906" style="stroke:#181818;stroke-width:1;"/><line style="stroke:#181818;stroke-width:1;" x1="710.3589" x2="561.0054" y1="810.9219" y2="810.9219"/><line style="stroke:#181818;stroke-width:1;" x1="561.0054" x2="561.0054" y1="810.9219" y2="832.9219"/><polygon fill="#181818" points="557.0054,822.9219,561.0054,832.9219,565.0054,822.9219,561.0054,826.9219" style="stroke:#181818;stroke-width:1;"/><line style="stroke:#181818;stroke-width:1;" x1="823.2666" x2="972.6201" y1="810.9219" y2="810.9219"/><line style="stroke:#181818;stroke-width:1;" x1="972.6201" x2="972.6201" y1="810.9219" y2="832.9219"/><polygon fill="#181818" points="968.6201,822.9219,972.6201,832.9219,976.6201,822.9219,972.6201,826.9219" style="stroke:#181818;stroke-width:1;"/><line style="stroke:#181818;stroke-width:1;" x1="561.0054" x2="561.0054" y1="1318.7031" y2="1336.7031"/><line style="stroke:#181818;stroke-width:1;" x1="561.0054" x2="754.8127" y1="1336.7031" y2="1336.7031"/><polygon fill="#181818" points="744.8127,1332.7031,754.8127,1336.7031,744.8127,1340.7031,748.8127,1336.7031" style="stroke:#181818;stroke-width:1;"/><line style="stroke:#181818;stroke-width:1;" x1="972.6201" x2="972.6201" y1="866.8906" y2="1336.7031"/><line style="stroke:#181818;stroke-width:1;" x1="972.6201" x2="778.8127" y1="1336.7031" y2="1336.7031"/><polygon fill="#181818" points="788.8127,1332.7031,778.8127,1336.7031,788.8127,1340.7031,784.8127,1336.7031" style="stroke:#181818;stroke-width:1;"/><line style="stroke:#181818;stroke-width:1;" x1="766.8127" x2="766.8127" y1="778.9219" y2="798.9219"/><polygon fill="#181818" points="762.8127,788.9219,766.8127,798.9219,770.8127,788.9219,766.8127,792.9219" style="stroke:#181818;stroke-width:1;"/><line style="stroke:#181818;stroke-width:1;" x1="766.8127" x2="766.8127" y1="1348.7031" y2="1368.7031"/><polygon fill="#181818" points="762.8127,1358.7031,766.8127,1368.7031,770.8127,1358.7031,766.8127,1362.7031" style="stroke:#181818;stroke-width:1;"/><!--SRC=[ZLDDZzem4BtdLynf5TJGtk5GPI5ReV8bM5RQun1F4fTWMxQpb7_ViGEKtUsX9oBpvddUXxtqBK4-6nOAzoq9c6jKi5E2xCbABrKDUKtAmn0A9OPUCr30KwjFIU8yMfyaevKX1RanusIqfPPA3tDKTOSrmGFaPKdEoRrifJ_3odYfbHidYQmWtJcoiA5QEa-MnFS1-8QfqbToWmHWDDUrL72Ile65PWQ2fVuANs3rl1udr3g2TAaZib3CS0SQXqE6mGjPMSaImxNnS4iUTWRMLbS1coxnI1daGbXUCuDLMNOceWSHlZEjHW5JNNP7ji51cgDe46q6wtoPmHPRjET0fwj-8f_1YvObVPiqw25dxUmJ6_YZau8S1Csyl1AoOkkcw9gzHYlOaH5Rs9wXqZQ6m6xsgc8Y-L5tJF80wyuQxOZ_dR2H8PamC4MF5wiXtIws6JoYEi2pHUMmZ9vdC66FfOV7pX9sWtZZx7tKXMB3AQW9JBnjuBs4rQzXZDLl_uXgs-XJl-cggdZfj5yuWrdGG8w_dadnpT6aM_XXPSEkng6FfC7CsXA1rpniZuxbisZMq7Se8cZuytNoAUO-Xurq1vWqL1vuyaagR2y2iEr1OO_xyy_28jLKkdrdkMvH86yJpUNTWyJn5HKjs931SsWAtAA5j5ZCWfF46UGTFw4rtbx2uEyuTuBJTGttrz_41CsnJinyb26hY_3x-jzV_ujYtFo5Zd_u0ROSW6AoDxgEnl9zf1WLlxaSBEwkarVikxVsVnTT6kwyDdy0]--></g></svg>